<?xml version="1.0" encoding="utf-8"?>
<!-- Generator: Adobe Illustrator 19.0.0, SVG Export Plug-In . SVG Version: 6.00 Build 0)  -->
<svg version="1.1" id="Layer_1" xmlns="http://www.w3.org/2000/svg" xmlns:xlink="http://www.w3.org/1999/xlink" x="0px" y="0px"
	 viewBox="203 -202.5 1205 1205" style="enable-background:new 203 -202.5 1205 1205;" xml:space="preserve">
<style type="text/css">
	.st0{fill:#FFFFFF;}
</style>
<path class="st0" d="M203,397c0-41.3,16.5-76.7,49.5-106S323,247,365,247c41.3,0,76.3,12,105,36h5c89.3-54.7,201-82,335-82l5-4
	l70-267l242,36c0,0.7,0.7,1,2,1c0.7,0,0.7-0.3,0-1c1.3-0.7,5.2-5.8,11.5-15.5s11.2-15.8,14.5-18.5c22.7-21.3,50-32,82-32
	c32.7,0,60.2,10.8,82.5,32.5S1353-18.7,1353,14s-11.2,60.7-33.5,84s-49.8,35-82.5,35c-38,0-67-12.8-87-38.5s-30-57.8-30-96.5
	c-1.3,0.7-33.8-3.7-97.5-13S922.3-30,913-32h-3c-1.3,1.3-6.8,19.2-16.5,53.5s-19.7,70.7-30,109S847.3,190,846,194v3l5,4
	c48,0,97.2,6.8,147.5,20.5c50.3,13.7,93.8,32.8,130.5,57.5l3,2c0.7-0.7,1.3-1,2-1s1.3-0.3,2-1c16.7-12,28.5-20.3,35.5-25
	s16.8-9,29.5-13s27-6,43-6c45.3,0,84,16,116,48s48,71,48,117c0,31.3-8.8,60-26.5,86s-40.8,46-69.5,60c0,130-86.7,231-260,303
	c-27.3,12-46,19.7-56,23c-21.3,6.7-51.7,13-91,19s-70.3,9-93,9c-80,0-157-11.7-231-35c-1.3-1.3-25.3-14-72-38
	c-63.3-34-114.2-72.7-152.5-116S299,615.7,299,555h-5c-22-11.3-41.7-28-59-50l-9-12c-10-18-16.3-33.2-19-45.5S203,418.3,203,397z
	 M237,409c0,44,19,81.3,57,112c3.3-39.3,19.3-78,48-116c28.7-38,62.3-71.7,101-101c-24.7-17.3-52-26-82-26
	c-32.7,0-61.5,13.5-86.5,40.5S237,375.7,237,409z M339,555c0,36,10.3,70.7,31,104s47.2,61.8,79.5,85.5S516,788,552,804
	s71,27.3,105,34c50,9.3,98.7,14,146,14c82,0,159.7-13.2,233-39.5s135-67.2,185-122.5h-3c20-25.3,34.3-48.2,43-68.5s13-44.5,13-72.5
	c0-36-8.8-70.3-26.5-103s-40.8-60.7-69.5-84s-59.3-43.5-92-60.5s-66-29.8-100-38.5c-56.7-15.3-117-23-181-23
	c-49.3,0-99.8,6-151.5,18s-101.7,30-150,54c-48.3,24-87.8,57.2-118.5,99.5S339,501.7,339,555z M525,482c0-24.7,7.5-44.5,22.5-59.5
	S582.3,400,607,400s45.3,7.5,62,22.5s25,34.8,25,59.5c0,24-8.5,44-25.5,60S631,566,607,566s-43.7-8-59-24S525,506,525,482z M561,646
	h44c16.7,30,43.2,52.8,79.5,68.5C720.8,730.2,758,738,796,738c38.7,0,75.3-7.8,110-23.5s62.7-38.5,84-68.5h41
	c-16.7,41.3-47.7,73.3-93,96s-92.7,34-142,34c-48,0-95.2-11.5-141.5-34.5S577,686.7,561,646z M897,482c0-25.3,7.7-45.3,23-60
	c15.3-14.7,35.7-22,61-22c22.7,0,42,8,58,24s24,35.3,24,58s-8,42.3-24,59s-35.3,25-58,25c-24.7,0-44.8-7.8-60.5-23.5
	S897,506.7,897,482z M1152,14c0,23.3,8.3,43.3,25,60s36.7,25,60,25c24,0,43.7-8.2,59-24.5s23-36.5,23-60.5c0-22.7-8-42-24-58
	s-35.3-24-58-24c-22.7,0-42.5,8.2-59.5,24.5S1152-8,1152,14z M1166,295c36.7,24,68.3,54.8,95,92.5s45.3,77.5,56,119.5
	c39.3-28.7,59-60.7,59-96c0-38.7-11.8-72-35.5-100s-54.5-42-92.5-42C1218,269,1190.7,277.7,1166,295z"/>
</svg>
