<?xml version="1.0" encoding="utf-8"?>
<!-- Generator: Adobe Illustrator 19.0.0, SVG Export Plug-In . SVG Version: 6.00 Build 0)  -->
<svg version="1.1" id="Layer_1" xmlns="http://www.w3.org/2000/svg" xmlns:xlink="http://www.w3.org/1999/xlink" x="0px" y="0px"
	 viewBox="80 268.3 960 265.7" style="enable-background:new 80 268.3 960 265.7;" xml:space="preserve">
<style type="text/css">
	.st0{fill:#FFFFFF;}
	.st1{fill:#0E6939;}
	.st2{fill:#0F6B3A;}
	.st3{fill:#13A650;}
	.st4{fill:#8DC641;}
	.st5{fill:#2BB673;}
	.st6{fill:#0F9548;}
</style>
<g>
	
		<image style="overflow:visible;opacity:0.75;" width="401" height="153" xlink:href="3F3C9AABDF2031DB.png"  transform="matrix(1 0 0 1 648 332)">
	</image>
	<g>
		<g>
			<path class="st0" d="M718.6,341.7v56H676v-44.4l-5.4,0v6.7l-13.1,6.5l0,71.5l18.4,9.3l0-27.7h42.6v56H740v-134H718.6z"/>
			<path class="st0" d="M784.7,437.2c-15.8,0-28.5-13.1-28.5-29.2c0-16.1,12.8-29.2,28.5-29.2c15.8,0,28.5,13.1,28.5,29.2
				C813.2,424.2,800.4,437.2,784.7,437.2z M784.7,364.3c-23.6,0-42.8,19.6-42.8,43.8c0,24.2,19.2,43.8,42.8,43.8
				c23.6,0,42.8-19.6,42.8-43.8C827.5,383.9,808.3,364.3,784.7,364.3z"/>
			<path class="st0" d="M1040,364.3H855.3c-13.8,0-25,11.4-25,25.5c0,14.1,11.2,25.5,25,25.5h20c5.9,0,10.7,4.9,10.7,10.9
				c0,6.1-4.8,10.9-10.7,10.9h-53.5v14.6h53.5c13.8,0,25-11.4,25-25.5c0-14.1-11.2-25.5-25-25.5h-20c-5.9,0-10.7-4.9-10.7-10.9
				c0-6,4.8-10.9,10.7-10.9h86.3v72.9h14.3v-72.9h40.5C1009.5,366.5,1040,364.3,1040,364.3z"/>
		</g>
	</g>
</g>
<g>
	<path class="st1" d="M631.4,494.6l26.2,13.2v-43.4l-26.2,13.1V494.6z"/>
	<path class="st2" d="M657.6,438v26.3l26.2-13.1L657.6,438z"/>
	<path class="st3" d="M657.6,464.4l26.2-13.1v43.4l-26.2,13.1V464.4z"/>
	<path class="st4" d="M552.9,464.1l52.3,26.4V534l-52.3-26.4V464.1z"/>
	<path class="st5" d="M605.3,490.6l26.2-13.1v43.4L605.3,534V490.6z"/>
	<path class="st3" d="M579.1,451l52.3,26.4l-26.2,13.1l-52.3-26.4L579.1,451z"/>
	<path class="st1" d="M579.1,366.7l39.3,19.7l13.1-6.6v97.7L579.1,451V366.7z"/>
	<path class="st4" d="M631.4,379.8l26.2-13.1v97.7l-26.2,13.1V379.8z"/>
	<path class="st4" d="M566,294.8v65.4l52.3,26.2v-65.1L566,294.8z"/>
	<path class="st5" d="M618.3,321.2l52.3-26.4v65.4l-52.3,26.2V321.2z"/>
	<path class="st6" d="M618.3,268.3L566,294.8l52.3,26.4l52.3-26.4L618.3,268.3z"/>
</g>
<g>
	
		<image style="overflow:visible;opacity:0.75;" width="91" height="107" xlink:href="3F3C9AABDF2031D9.png"  transform="matrix(1 0 0 1 71 355)">
	</image>
	<g>
		<path class="st0" d="M122.2,437.8c-15.5,0-28.1-13.1-28.1-29.2c0-16.1,12.6-29.2,28.1-29.2c7.8,0,14.8,3.3,19.9,8.5l9.9-10.3
			c-7.6-7.9-18.2-12.8-29.8-12.8c-23.3,0-42.2,19.6-42.2,43.8c0,24.2,18.9,43.8,42.2,43.8c11.7,0,22.2-4.9,29.8-12.8l-9.9-10.3
			C137,434.6,130,437.8,122.2,437.8z"/>
	</g>
</g>
<g>
	
		<image style="overflow:visible;opacity:0.75;" width="87" height="107" xlink:href="3F3C9AABDF2031DF.png"  transform="matrix(1 0 0 1 146 355)">
	</image>
	<g>
		<path class="st0" d="M195.3,408.7H170v-29.2h25.3c7.8,0,14.1,6.5,14.1,14.6C209.4,402.1,203.1,408.7,195.3,408.7z M223.5,394.1
			c0-16.1-12.6-29.2-28.1-29.2H156v87.5H170v-29.2h21l16.2,29.2h16.2L206,421.1C216.3,416.7,223.5,406.3,223.5,394.1z"/>
	</g>
</g>
<g>
	
		<image style="overflow:visible;opacity:0.75;" width="204" height="107" xlink:href="3F3C9AABDF2031D8.png"  transform="matrix(1 0 0 1 220 355)">
	</image>
	<g>
		<path class="st0" d="M386.7,408.7h-25.3v-29.2h25.3c7.8,0,14.1,6.5,14.1,14.6C400.7,402.1,394.4,408.7,386.7,408.7z M386.7,364.9
			H291v72.9h-47.8V417H260v-14.6h-16.9v-23h42.2v-14.6h-56.3v87.5h112.5v-14.6h-36.6V417h16.9v-14.6h-16.9v-23h42.2v72.9h14.1v-29.2
			h25.3c15.5,0,28.1-13.1,28.1-29.2C414.8,378,402.2,364.9,386.7,364.9z"/>
	</g>
</g>
<g>
	
		<image style="overflow:visible;opacity:0.75;" width="70" height="107" xlink:href="3F3C9AABDF2031D6.png"  transform="matrix(1 0 0 1 411 355)">
	</image>
	<g>
		<polygon class="st0" points="471.1,437.8 434.5,437.8 434.5,417 451.4,417 451.4,402.4 434.5,402.4 434.5,379.5 471.1,379.5 
			471.1,364.9 420.4,364.9 420.4,452.4 471.1,452.4 		"/>
	</g>
</g>
<g>
	
		<image style="overflow:visible;opacity:0.75;" width="146" height="150" xlink:href="3F3C9AABDF2031D7.png"  transform="matrix(1 0 0 1 465 347)">
	</image>
	<g>
		<path class="st0" d="M535,412.1h-35.8v-35.6H535c9.5,0,17.1,8,17.1,17.8C552.1,404.2,544.4,412.1,535,412.1z M579.1,411v-41
			c-4.4-5.3-11.4-11.2-37-11.2h-42.9c-11.5,0-25-2.4-25-2.4s1.9,8.8,1.9,20.1v100.3h23v-47h32c0,0,24.9,32.8,70.2,57.8
			c-36.3-44.8-38.6-62.5-38.6-62.5C569.2,422,575.4,416.5,579.1,411z"/>
	</g>
</g>
</svg>
