<svg xmlns="http://www.w3.org/2000/svg" width="256" height="256">
  <path fill="#474a54" d="M0.7,130.429L48.261,52.335l108.4-50.883,59.289,32.521,39.6,54.2-35.4,68.581L238.3,192.816l-18.362,38.493L141.619,254.76,94.94,228.212l-41.591-1.548L19.5,206.311l-1.77-35.4Zm97.341-18.8,17.477,3.318L106.886,70.7Zm26.99,15.928,40.485,67.032,59.511-3.982-18.805-31.635-36.06,7.964ZM164.406,17.6l6.415,38.051,27.212,22.123,40.042,5.973L204.891,39.062ZM118.833,36.186l-0.221-1.991,31.856-16.813,2.876,17.477Z"/>
</svg>
