<svg xmlns="http://www.w3.org/2000/svg" viewBox="0 0 474 321"><linearGradient id="a" gradientUnits="userSpaceOnUse" x1="133.238" y1="201.853" x2="168.968" y2="201.853" gradientTransform="matrix(1.4585 .2338 -.2513 1.1238 -9.59 -58.296)"><stop offset="0" stop-color="#b69632"/><stop offset=".467" stop-color="#8e752c"/><stop offset="1" stop-color="#615121"/></linearGradient><path fill="url(#a)" d="M188.4 197.6c-5.2 10.7-28.6 16.6-28.1 28.5-1 .6-2.1 1.4-3 1.9-11.6.6-23.8-3.3-26-12.7-2.1-9.3 11.7-10.1 19.5-15.2 3.7-2.4 5.8-5.5 8.8-8.8 2.2-2.4 6-7 8.5-8.3 15.5-7.8 18.4 7.5 18.5 14.3 1.3 0 1.1.5 1.7.9"/><path fill="#3B2713" d="M188.4 197.6c-1.4 3.2-4.1 5.6-6.7 7.8-2.7 2.2-5.6 4.1-8.4 6.1-2.8 2-5.6 3.9-8 6.3-2.4 2.3-4.2 5.3-4 8.4v.6l-.6.3c-.9.5-1.9 1.3-3 1.9l-.2.1h-.3c-4.8.3-9.6-.1-14.3-1.5-2.3-.7-4.6-1.7-6.7-3.1-2.1-1.4-3.9-3.3-5.1-5.6-.6-1.1-1-2.4-1.3-3.6-.3-1.3-.2-2.8.2-4.1.5-1.4 1.3-2.5 2.3-3.4 1-.9 2.1-1.6 3.2-2.1 4.4-2.3 8.9-3.4 12.9-5.5 2-1 3.7-2.4 5.3-4 1.6-1.6 3.1-3.4 4.7-5.2 1.6-1.7 3.2-3.4 4.9-5.1.9-.8 1.7-1.7 2.7-2.4.5-.4 1-.7 1.6-1 .5-.2 1.1-.5 1.6-.7 2.2-.9 4.7-1.5 7.2-1.3 1.2.1 2.5.5 3.6 1.1 1.1.6 2 1.5 2.8 2.4 1.5 1.9 2.4 4.2 2.9 6.5s.8 4.7.7 7l-.1-.1c.3 0 .7 0 1 .2.3.2.4.6.7.8-.3-.2-.4-.5-.7-.7-.3-.2-.6-.1-1-.1h-.1v-.1c-.1-2.3-.5-4.6-1.2-6.9-.7-2.2-1.6-4.4-3.1-6.1-1.5-1.7-3.5-2.7-5.7-2.8-2.2-.1-4.4.5-6.5 1.4-.5.2-1 .5-1.5.7-.4.2-.9.5-1.3.9-.9.7-1.7 1.5-2.5 2.4-1.6 1.7-3.1 3.5-4.6 5.2-1.5 1.7-3 3.6-4.6 5.3-1.6 1.8-3.6 3.4-5.8 4.5-4.3 2.3-8.9 3.5-12.9 5.6-1.9 1-3.7 2.4-4.3 4.2-.3.9-.3 1.9-.2 2.8.2 1.1.5 2 1 3 1 1.9 2.5 3.5 4.3 4.7 1.8 1.3 3.9 2.2 6 2.9 4.3 1.4 8.9 1.8 13.5 1.7l-.5.1c.9-.5 1.9-1.2 3.1-1.8l-.5.9c-.1-1.9.5-3.8 1.4-5.4.9-1.6 2.1-3 3.4-4.2 2.6-2.4 5.5-4.3 8.4-6.2 2.9-1.8 5.9-3.6 8.7-5.6 1.4-1 2.7-2.1 4-3.2 1.6-1.1 2.7-2.4 3.6-4z"/><path fill="#007171" d="M106 207.4c-3.4-2.5-86.6-47.8-86.6-47.8s-10.9-27.3-10.1-28c1.1-.9 29.8-7.8 29.8-7.8l84.4 50.8-17.5 32.8z"/><path fill="#006060" d="M89.3 231.5l-4.5-16.3 10.2-14-75.6-41.8L9 131.5s9.5 26.1 10.4 28.1c.9 2 76.1 41.8 76.1 41.8s20.9-3.2 25.6-3.9"/><path fill="#033535" d="M150.2 233.3s-6.6-24.9-5.1-24.8c1.5.1 29.1-9.5 28.9-6.5-.2 3 6.2 24.2 4.7 24.1-1.5-.1-28.5 7.2-28.5 7.2z"/><path fill="#066" d="M156.1 223.3c.7-8.8 4.4-11 4.4-11l7.4.2-2.2 8.9"/><path fill="#5DC7D1" d="M111.3 203.1c-2.2-1.6-40.3-30.2-40.3-30.2l-42.7-16.6-6.3-16.8 18.8-4.5 25.5 23 31.4 8.8 27.6 23.2-12.7 11.5"/><path fill="#3F2D14" d="M120.1 205.6c1.1-.7 21.5 14.4 21.6 13 .2-1.4 15.1-4.2 15.1-4.2l-4.5-16.3-24.8-7.6-7.4 15.1z"/><path fill="#583E18" d="M119.8 195l20.2 16.4 8.6-1-25.3-23.7"/><path fill="#195C5E" d="M89.3 231.5l-4.5-16.3 14.3-19.9 16.1-5-3.7-17.1s11.1-21.3 12.4-21.6c1.3-.3 17.5-5.9 17.5-5.9L145 162l-3.5 22.5-20.5 31.7-13.8 14.2-17.9 1.1z"/><path fill="#69CAD9" d="M94.1 222.2s11.8-24.2 12.9-24.8c1.1-.6 25.5-37.5 25.5-37.5l-1 21.9-19.8 33.1-17.6 7.3z"/><path fill="#4598A1" d="M116.5 190.6c-1.3-.2-15.8 4.5-15.8 4.5L71 172.9l-42.7-16.6S19.8 140 22 139.5"/><path fill="#022" d="M39.1 123.8l37.5 22.1L95.3 157l18.7 11.1-1 .2 10.1-17 .1-.3.3-.1 17.5-6 .9-.3.2 1 3.7 16.3v.4l-3.4 22.5v.2l-.1.2-5.3 8.2-.6-1.6 16.1 5.3.6.2.2.6 2.3 8.1-1.3-.8 19.4-4.3 1.2-.3.2 1.2 4.7 24.1.2 1.1-1 .3-27.8 8.4-1.2.3-.3-1.3-4-16.7 1.4.9-5.2.8-.5.1-.4-.3-15.2-10.8 1.7-.3-6.8 9.8-.1.1-.1.1-12.5 12.8-.3.3h-.4l-17.9 1.1h-.8l-.3-.8-5.6-15.2-.2-.6.4-.5 11.4-15 .3 1.5-75.4-42-.2-.1-.1-.2-10.2-28.1-.1-.3.3-.1 30.2-7.4zm0 0l-30 8 .2-.4 10.6 28-.3-.3 75.8 41.4 1 .6-.7.9-11.2 15 .1-1 5.7 15.2-1.1-.7 17.9-1.1-.7.3 12.5-12.8-.1.1 6.8-9.8.7-1 1 .7 15.2 10.7-.9-.2 5.2-.9 1.1-.2.3 1.1 4 16.7-1.6-.9 27.8-8.3-.8 1.4-4.6-24.1 1.4.9-19.5 4.2-1 .2-.3-1-2.3-8.1.7.8-16.1-5.3-1.3-.4.8-1.2 5.3-8.2-.2.4 3.6-22.5v.4l-3.5-16.4 1.2.7-17.6 5.8.4-.3-10.3 16.8-.4.6-.6-.4-18.6-11.3-18.5-11.4-37.1-22.7z"/><linearGradient id="b" gradientUnits="userSpaceOnUse" x1="101.719" y1="203.374" x2="137.449" y2="203.374" gradientTransform="matrix(.818 .191 -.1748 1.1289 86.614 -51.848)"><stop offset="0" stop-color="#b69632"/><stop offset=".467" stop-color="#8e752c"/><stop offset="1" stop-color="#615121"/></linearGradient><path fill="url(#b)" d="M165.1 193.5c-3.2 10.8-16.6 17.4-16.7 29.3-.6.6-1.2 1.4-1.8 2-6.6.9-13.4-2.6-14.3-11.9-.9-9.2 6.9-10.4 11.5-15.8 2.2-2.5 3.4-5.7 5.2-9 1.3-2.5 3.6-7.2 5.1-8.5 9-8.3 10.2 6.9 10 13.7.8 0 .6.4.9.9"/><path fill="#3B2713" d="M165.1 193.5c-.7 2.8-2.1 5.4-3.7 7.8-1.6 2.4-3.5 4.6-5.3 6.8-1.8 2.2-3.5 4.5-4.7 7-1.3 2.4-2 5.1-2 7.8v.4l-.3.3c-.5.5-1 1.3-1.7 2l-.2.3-.4.1c-1.9.3-3.9.2-5.7-.2-1.9-.5-3.7-1.4-5.2-2.6-1.5-1.3-2.7-3-3.4-4.7-.8-1.8-1.2-3.7-1.3-5.6-.2-1.9 0-4 .8-5.9.8-1.9 2.2-3.4 3.7-4.6 2.9-2.4 6-4 8-6.7 2-2.6 3.4-6.1 5.2-9.1.9-1.6 1.7-3.1 2.7-4.7.5-.8 1-1.5 1.6-2.3l.3-.3.2-.2.1-.1c.2-.1.3-.3.5-.4.4-.3.8-.6 1.2-.8.8-.5 1.7-1 2.8-1.1 1.1-.1 2.3.3 3 1 .8.7 1.3 1.6 1.6 2.4.4.9.6 1.8.8 2.7.4 1.8.6 3.6.7 5.4.1 1.8.1 3.6-.1 5.4l-.1-.1c.2 0 .5.1.7.3.1.2.1.5.3.6-.2-.2-.2-.4-.3-.6-.1-.2-.4-.2-.6-.2h-.1v-.1c-.1-3.6-.5-7.1-1.4-10.5-.5-1.6-1.2-3.4-2.3-4.3-.6-.5-1.2-.7-2-.5-.7.1-1.4.5-2.1 1-.3.2-.7.5-1 .8l-.5.4-.1.1-.1.1-.2.2c-.5.6-.9 1.4-1.4 2.1-.9 1.5-1.6 3.1-2.4 4.7-.8 1.6-1.6 3.1-2.4 4.8-.8 1.6-1.6 3.3-2.8 4.8-1.1 1.6-2.6 2.9-4 4-1.5 1.1-2.9 2.1-4.2 3.2-1.3 1.1-2.4 2.3-3 3.7-.6 1.4-.8 3-.7 4.6.2 3.3 1.4 6.6 3.9 8.7 2.4 2.2 5.8 3 9.1 2.5l-.6.3c.5-.5 1.1-1.3 1.8-2l-.3.7c.1-3.1 1-6 2.5-8.6 1.5-2.6 3.4-4.8 5.3-7 1.9-2.1 3.9-4.2 5.7-6.4 1.5-2.3 3.1-4.7 4.1-7.4z"/><radialGradient id="c" cx="390.154" cy="209.077" r="60.495" gradientUnits="userSpaceOnUse"><stop offset="0" stop-color="#b12729"/><stop offset=".298" stop-color="#a32124"/><stop offset=".681" stop-color="#971d20"/><stop offset="1" stop-color="#931b1e"/></radialGradient><path fill="url(#c)" d="M319 172s29.7 26 48 29.3c18.3 3.3 25.8.4 38-1.3 10.3-1.5 24.5 1.5 29.3 3.6 4.3 1.9 15 10.1 17.7 12.7 7.6 7.5 13 13.8 14.7 14.8 1.7.9-.5.7-2.8 1.9-2.3 1.3-14 .8-20.8-1.8-10.8-4.2-19-7.6-26.6-6.7-3.6.4-12.9 3.8-17.4 8.6-3.3 3.5-15.1 12.8-23.5 12.9-5 .1-19 .5-27.5-.7-22.7-3.2-30-3.5-34.9-8.8"/><path d="M319.1 171.9c5.4 4.3 11 8.4 16.7 12.3 5.7 3.9 11.5 7.6 17.6 10.7 3 1.6 6.2 3 9.4 4 1.6.5 3.2 1 4.8 1.2 1.7.3 3.4.5 5.1.8 3.4.4 6.8.7 10.2.7 3.4 0 6.8-.3 10.2-.8l10.3-1.5c3.5-.5 7.1-.6 10.5-.4 3.5.2 7 .7 10.4 1.4 3.4.7 6.8 1.5 10.1 2.8 1.7.7 3.1 1.7 4.6 2.6 1.5 1 2.9 2 4.3 3 2.8 2 5.6 4.1 8.2 6.4 1.3 1.2 2.5 2.4 3.8 3.6l3.7 3.7c2.4 2.4 4.8 5 7.3 7.3.3.3.6.5.9.7.1.1.4.2.6.4.1 0 .1.1.2.2s.3.2.3.7c0 .4-.3.7-.4.8-.1.1-.2.2-.3.2-.6.3-.9.3-1.3.5-.4.1-.8.3-1.1.4l-1.2.6c-.5.2-1 .3-1.4.3-.9.2-1.8.2-2.7.3-3.6.2-7.1-.1-10.6-.7-1.7-.3-3.5-.7-5.2-1.2-.4-.1-.9-.3-1.3-.4l-1.2-.5-2.4-.9c-3.2-1.2-6.4-2.4-9.7-3.4-3.2-1-6.5-1.7-9.8-1.7-.8 0-1.6 0-2.4.1-.4 0-.8.1-1.1.2l-1.2.3c-1.6.4-3.2 1-4.7 1.6-3.1 1.3-6.1 2.9-8.5 4.9-.3.3-.6.5-.9.8l-.9.9c-.7.6-1.3 1.2-2 1.8-1.4 1.2-2.7 2.3-4.2 3.3-2.9 2.1-5.9 3.9-9.2 5.4-1.6.7-3.4 1.4-5.2 1.8-.9.2-1.8.4-2.8.4-1 .1-1.8 0-2.7 0-6.9 0-13.9.1-20.9-.5-1.7-.1-3.5-.3-5.2-.6l-5.1-.8-10.3-1.6c-3.4-.6-6.8-1.2-10.2-2.1-1.7-.5-3.4-1.1-4.9-1.9-1.6-.8-3-1.9-4.1-3.3l.2-.2c2.4 2.5 5.7 3.7 9.1 4.4 3.3.7 6.8 1.1 10.2 1.6l10.3 1.2 5.2.6c1.7.2 3.4.3 5.1.4 6.8.4 13.7.2 20.6-.1.8 0 1.8 0 2.5-.1.8-.1 1.5-.2 2.3-.4 1.6-.4 3.1-1 4.6-1.7 3-1.4 5.9-3.2 8.6-5.2 1.4-1 2.7-2 4-3.1.6-.5 1.3-1.1 1.8-1.7l.9-.9c.3-.3.7-.6 1-.9 2.9-2.4 6.1-4 9.4-5.4 1.7-.7 3.3-1.2 5.1-1.7.4-.1.9-.2 1.4-.3.5-.1 1-.2 1.4-.2.9-.1 1.8-.1 2.8-.1 3.7.1 7.2 1 10.6 2 3.4 1.1 6.6 2.3 9.8 3.6l2.4 1 1.2.5c.4.2.8.3 1.2.4 1.6.5 3.2.9 4.9 1.3 3.3.6 6.7 1 10.1 1 .8 0 1.7 0 2.5-.1.4-.1.8-.1 1.1-.2.2 0 .7-.3 1.1-.5.4-.2.9-.3 1.3-.4.4-.1.9-.2 1.1-.3 0 0-.2.2-.2.6 0 .3.1.4.1.4-.1-.1-.2-.1-.5-.3-.4-.3-.8-.6-1.1-.9-2.5-2.5-4.8-5.1-7.1-7.6s-4.7-5.1-7.2-7.4c-2.6-2.3-5.3-4.4-8.1-6.4-1.4-1-2.8-2-4.2-2.9-1.4-.9-2.9-1.9-4.4-2.5-3.2-1.2-6.6-1.9-9.9-2.5-3.4-.5-6.8-.9-10.2-.9-3.4-.1-6.8.1-10.1.8-3.4.6-6.8 1.3-10.2 1.9-3.4.6-7 1-10.5 1s-7.1-.2-10.5-.7c-1.7-.2-3.5-.5-5.2-.8-1.8-.3-3.5-.8-5.2-1.4-3.4-1.2-6.5-2.7-9.6-4.4-6.1-3.4-11.9-7.3-17.5-11.5-2.8-2.1-5.5-4.3-8.1-6.5-2.7-2.2-5.3-4.5-7.8-6.9l-.4-.4z"/><path fill="#7F1719" stroke="#931B1E" stroke-miterlimit="10" d="M322 175s25.9 29.9 40.3 35.1c8 2.9 13.8 4.2 21.1 3.4 15.8-1.9 20.3-3.4 25.1-4.5 5.2-1.2 14.5-2.4 18.5-1.2 10.2 3 9 3 17.8 9.8s5 5 10.8 8.8-4.6 1.4 1.5 3.3c7.2 2.2-1.2 1.3-13.7-2.3s-12.5-4.1-22.3-5.3c-2.5-.3-11.3 1.3-20.3 6.5-3.9 2.2-9.8 7.4-13.3 9.3-6 3.2-19.1 6.1-23.3 6.8-7.5 1.3-49.2-6.6-55-8"/><path fill="#741214" d="M324 184.7c2.8 3 4.2 7.9 6.6 11.4 2.4 3.6 5.5 7 8.8 9.8 7.3 6.2 16.9 10.1 26.2 12.4 10.8 2.6 21.5 4.8 33.5 3.3-2.5 2.1-4.6 4.7-7.5 5.7-2.5 3.3-8.5 5.2-12.7 6.3-5.1 1.3-10 3.4-15.3 4.4-11.9 2.2-24.6 2.7-36.4.6-5.2-.9-11.1-3.6-16-5.7-6-2.5-2.9-6.9-1.2-11.6 1.8-5 3.7-9.7 4.9-14.7 1.2-5.1 1.6-10.1 3-15 .8-2.8 2.7-6.5 5.7-7.3"/><path fill="none" stroke="#3B2713" stroke-width="3" stroke-miterlimit="10" d="M189 27c13-7 31-10 44-10 6.5 18.3 14 36 13 60"/><linearGradient id="d" gradientUnits="userSpaceOnUse" x1="247.806" y1="68.654" x2="230.839" y2="311.301"><stop offset="0" stop-color="#efda94"/><stop offset="1" stop-color="#987e2e"/></linearGradient><path fill="url(#d)" stroke="#3B2713" stroke-width="3" stroke-miterlimit="10" d="M149 128c3-9 11-47 28-55s124-1 131 0 13 7 14 15 16.2 70 13 85c-3 14-12 27-14 45s7 44 6 61 .3 20.5-7 23c0 0-22 10-47 9s-47-2-68-5-26 4-39 0-16-11-17-29 8-30 11-44 1-27-4-39-8-11-8-26c0-4 2-9 2-9 6-1 12-4 11-12s-12-19-12-19z"/><circle fill="#3B2713" cx="172.5" cy="28.5" r="21.5"/><circle fill="#B69632" cx="173" cy="29" r="18"/><path fill="#EFDA94" d="M173.5 16c6.8 0 12.9 3.2 16.8 8.1-2.1-7.5-9.1-13.1-17.3-13.1-9 0-16.4 6.6-17.8 15.2C159 20.1 165.8 16 173.5 16z"/><linearGradient id="e" gradientUnits="userSpaceOnUse" x1="244.788" y1="77.645" x2="228.671" y2="308.136"><stop offset=".438" stop-color="#b69632"/><stop offset=".701" stop-color="#8e752c"/><stop offset="1" stop-color="#615121"/></linearGradient><path fill="url(#e)" d="M153.6 128.3s9-34 23-43 24-10 37-9 59 1 78 8 23 18 24 22 10 43 9 63-15 49-11 71 5.5 51 3.2 53.5c-4.5 4.9-7.3 6.9-23 12.8-18.2 6.8-64.2 1.8-79.2-.2s-25-3-38-3-14-2-19-8-4-13-4-27c0 0 6-17 11-39 4.4-19.5-1.6-26.6-7-38-8-17-5-24-5-26s8.7.3 13.4-1.3c6-2 11.4-6.3 11-16-.3-7.1-1-10.4-10.4-16.7-6-4.1-13-3.1-13-3.1z"/><path fill="#3B2713" d="M153.6 128.3c1.4-.2 2.9 0 4.3.2s2.8.5 4.2.9c1.4.4 2.8.8 4.1 1.3 1.3.5 2.7 1.1 4 1.8.6.4 1.3.8 1.9 1.3.3.2.6.6.8.9l.6.9c.8 1.2 1.6 2.5 2.2 3.8 1.3 2.7 1.8 5.8 1.6 8.8-.2 3-1 5.9-2.2 8.5-.6 1.3-1.4 2.6-2.3 3.8-.9 1.2-2.2 2.2-3.6 2.8-1.4.6-2.8 1-4.3 1.2-1.4.2-2.9.3-4.3.3-2.9 0-5.7-.3-8.5-.9 2.8.2 5.7.3 8.5 0s5.6-.7 8-2c1.2-.6 2.1-1.5 2.9-2.6.8-1.1 1.4-2.3 1.9-3.5 1-2.5 1.8-5.2 1.9-7.9.2-2.7-.2-5.4-1.3-7.9-.5-1.3-1.2-2.5-1.9-3.6l-.6-.9c-.2-.3-.3-.5-.6-.7-.4-.4-1-.8-1.6-1.2-2.3-1.5-4.9-2.6-7.6-3.5-1.3-.5-2.7-.9-4-1.3-1.3-.2-2.7-.5-4.1-.5zM272 134.7c2.3-5.5 6.9-10.1 12.6-12.4 2.9-1.2 6-1.6 9.2-1.1 3.4.7 6 3.5 6.7 6.7.4 1.6.2 3.4-.4 4.9-.7 1.7-2 2.8-3.3 3.7-2.7 1.7-5.6 2.7-8.6 3.3-2.9.6-6 1-9.1.2-1.5-.5-2.8-1.3-4-2.2-1.2-.9-2.3-1.9-3.5-2.8 1.3.7 2.5 1.6 3.8 2.4 1.2.8 2.6 1.4 3.9 1.7 1.4.3 2.8.2 4.3 0 1.4-.2 2.9-.5 4.3-.9 2.8-.7 5.6-1.7 7.8-3.3 1.1-.8 2.1-1.8 2.5-2.9.5-1.2.6-2.5.3-3.8-.3-1.3-.9-2.5-1.8-3.4-.9-.9-2.1-1.6-3.3-1.9-2.7-.5-5.6-.2-8.3.7-2.7.9-5.2 2.4-7.5 4.3-2.2 1.9-4.1 4.2-5.6 6.8zM174.9 198c1.7-.1 3.4.7 4.7 1.7 1.4 1 2.5 2.3 3.6 3.6 1 1.3 1.9 2.8 2.8 4.2.8 1.5 1.5 3 2.2 4.5.7 1.5 1.3 3.1 1.9 4.6l.9 2.3c.3.8.5 1.6.8 2.4.8 3.3 1.1 6.6 1.1 10 0 1.7 0 3.3-.2 5-.3 1.7-.8 3.3-1.6 4.8s-1.9 2.8-3 4c-1.1 1.2-2.2 2.5-3.5 3.6-1.3 1.1-2.8 2-4.5 2.4-1.7.4-3.6 0-5.2-.6s-3.1-1.4-4.5-2.5c-.7-.5-1.3-1.1-1.9-1.8-.6-.7-1.1-1.5-1.3-2.5l.4.6c-1.3-.8-1.8-2-2.2-3.1-.4-1.1-.7-2.2-1-3.3-.5-2.2-.7-4.4-1-6.5-.7-4.3-1.4-8.7-1.6-13.1-.1-4.4.1-9 1.7-13.3.8-2.1 2.1-4.1 4.1-5.4 2-1.3 4.4-1.6 6.5-1.2v.2c-2.2-.1-4.4.4-6 1.7-1.6 1.3-2.7 3.2-3.3 5.2-.6 2-1 4.1-1.1 6.3-.1 2.1-.1 4.3.1 6.4.3 4.3 1 8.6 1.7 12.9.3 2.2.5 4.4.9 6.5.2 1 .4 2.1.8 3 .3.9.8 1.8 1.4 2.2l.3.2.1.4c.3 1.3 1.3 2.5 2.5 3.5s2.6 1.8 4 2.5 3 1 4.5.8c1.5-.2 3-1 4.2-2 1.3-1 2.4-2.2 3.5-3.4 1.1-1.2 2.1-2.5 2.9-3.9.8-1.4 1.2-3 1.3-4.6.1-1.6 0-3.2-.1-4.9-.3-3.3-.8-6.5-1.6-9.6-.2-.8-.4-1.5-.7-2.3l-.9-2.3c-.6-1.5-1.1-3.1-1.8-4.6-1.2-3-2.6-5.9-4.4-8.7-.9-1.3-1.9-2.6-3.1-3.7-1.2-1.1-2.6-1.9-4.2-2.1l-.2-.1z"/><g><path fill="#3B2713" d="M256.7 239.7c-2.9-2.3-6.5-3.4-10.1-3.7-3.6-.3-7.2.1-10.7 1.2l.3-.2c-.9.9-1.4 2.2-1.6 3.6-.2 1.4 0 2.8.3 4.2.3 1.4.8 2.7 1.5 3.9.7 1.2 1.6 2.3 2.6 3l.3.2.1.4c.3 1.1 1.2 2.3 2.1 3.2 1 .9 2.1 1.7 3.3 2.1l.5.2.1.5.1.6-.5-.9c1.5.5 2.8 1.5 4 2.1 1.2.7 2.3.9 3.8 1 1.4.1 2.8 0 4.2-.2 1.4-.2 2.7-.6 4-1.1l-.4.3c1.3-1.7 2.6-3.4 3.3-5.3.7-1.9.5-4-.1-6s-1.6-3.9-2.9-5.6c-.7-.8-1.4-1.6-2.3-2.2-.9-.6-1.9-1-3-1 1.1-.2 2.2.2 3.2.7 1 .6 1.8 1.3 2.5 2.1 1.5 1.7 2.7 3.5 3.5 5.7.7 2.1 1.1 4.5.4 6.8-.7 2.3-2.1 4.1-3.3 5.8l-.1.2-.2.1c-1.4.6-2.9 1-4.3 1.3-1.5.3-3 .4-4.5.3-.7 0-1.6-.1-2.3-.3-.8-.2-1.6-.5-2.3-.9-1.4-.8-2.5-1.6-3.7-2l-.5-.2-.1-.6-.1-.6.6.7c-1.6-.6-2.9-1.5-4-2.6s-2.1-2.4-2.6-4.1l.4.6c-1.5-.9-2.5-2.3-3.3-3.7-.8-1.4-1.3-2.9-1.6-4.5-.3-1.6-.4-3.2-.2-4.8.2-1.6.9-3.3 2.2-4.4l.1-.1h.2c1.8-.5 3.7-.8 5.6-.9 1.9-.1 3.8 0 5.6.3 1.8.3 3.7.8 5.4 1.6 1.6.9 3.1 1.9 4.5 3.2z"/></g><g><path fill="#3B2713" d="M178.8 283.8c.4 1.9.7 3.8 1 5.6.4 1.9.8 3.7 1.5 5.4.8 1.7 1.4 3.5 2.6 4.8.6.6 1.3 1.2 2.1 1.7l1.2.8c.4.3.7.5.9.5l.5.1.1.6v.2l-.7-.7 1.8.4c.6.1 1.2.2 1.7.3.6.1 1.1.1 1.6 0s.8-.3.9-.5l.2-.3.3-.1H194.8c-.1 0-.2 0-.3.1l-.2.2c.6-.8 1.3-1.3 1.8-1.9.6-.6 1-1.1 1.3-1.8.6-1.3 1-3 1.2-4.5.4-3.2-.6-6.3-2.6-8.8-1.9-2.5-4.8-4.3-8-4.8-1.6-.4-3.3-.6-4.9-.8-1.6-.2-3.2.5-4.8.9l.1-.3c.3.6.4 1.1.4 1.7 0 .6 0 1.2-.2 1.7.2-.6.1-1.1 0-1.7-.1-.5-.3-1.1-.6-1.6l-.1-.2.2-.1c1.5-.5 3.1-1.4 5-1.4 1.7 0 3.4.2 5.1.4 3.5.4 6.9 2.2 9.2 5 1.1 1.4 2.1 3 2.6 4.7.6 1.7.7 3.6.5 5.4-.2 1.8-.5 3.5-1.3 5.2-.4.9-1.1 1.7-1.7 2.3-.6.6-1.3 1.2-1.7 1.7l-.1.1-.1.1c-.2.1-.3.2-.5.2h-.3s-.1 0 0 0h.2l.5-.4c-.5.8-1.4 1.2-2.2 1.3-.8.1-1.5.1-2.1 0-.7-.1-1.3-.2-1.9-.4l-1.8-.4-.6-.1-.1-.5v-.2l.7.7c-.7-.2-1.2-.6-1.6-.9l-1.1-.9c-.8-.6-1.5-1.2-2.2-2.1-.6-.8-1.1-1.7-1.5-2.7-.4-.9-.7-1.8-1-2.7-.6-1.9-.9-3.8-1.1-5.7 0-1.8-.1-3.7-.2-5.6z"/></g><g><path fill="#3B2713" d="M280.5 302c3.6-1 7-2.7 9.9-5.1 2.8-2.4 5-5.4 6.5-8.8 1.5-3.3 2.5-6.9 3.1-10.6.6-3.7.8-7.4.9-11.1.1-7.4-.5-14.9-1.3-22.4-.4-3.7-.7-7.5-1-11.2-.3-3.8-.6-7.6-.5-11.4.2-7.8 2.4-15.3 4.9-22.4 1.3-3.6 2.6-7.1 3.8-10.6 1.2-3.5 2.1-7.1 2.8-10.8.7-3.7 1.2-7.4 1.6-11.1l.7-5.6c.2-1.9.5-3.7.5-5.6.2-3.7-.3-7.4-.7-11.2-.5-3.7-.9-7.5-.6-11.3.1 7.5 2.7 14.7 2.8 22.5 0 1.9-.2 3.8-.3 5.7l-.4 5.6c-.3 3.8-.7 7.5-1.3 11.3-1 7.6-3.7 14.8-6.1 21.9-1.2 3.5-2.4 7.1-3.2 10.7-.8 3.6-1.4 7.2-1.4 10.9-.1 7.4.8 14.9 1.4 22.4.6 7.5 1.1 15.1.8 22.7-.2 3.8-.5 7.6-1.3 11.4-.8 3.7-1.9 7.5-3.7 10.9-1.8 3.4-4.3 6.5-7.3 8.8-3.3 2.2-6.9 3.7-10.6 4.4z"/></g><g><path fill="#423819" d="M239 141.5c-7.9 0-14.4-.2-22.2.2-.4 7.8-2.1 16-1.2 23.9.6 5.3 3.1 16.1 10.4 13.1 5.9-2.4 8.2-10.8 9.5-16.6 1.8-8 2.1-13 1.4-20.6.3-.1.6-.1 1 0"/><path d="M239 141.7c-1.8.3-3.7.4-5.5.6-1.8.1-3.7.2-5.5.3l-11 .5 1.3-1.3c-.2 3.6-.9 7-1.4 10.5-.6 3.5-1 6.9-.8 10.4.1 3.5.9 6.9 2.2 10 .7 1.5 1.6 3 2.6 4 1.1 1 2.3 1.4 3.7 1.1 1.3-.3 2.7-1.2 3.7-2.3 1.1-1.1 1.9-2.5 2.7-3.9 1.4-2.9 2.4-6.3 3.2-9.6.8-3.4 1.6-6.7 2.1-10.1.5-3.4.6-6.9.7-10.4v-.3h.2c.4 0 .7 0 1 .1v.3c-.3 0-.6.1-.9.1l.2-.3c.7 3.5 1.1 7 1 10.6-.1 3.6-.6 7.2-1.3 10.6-.7 3.5-1.7 7-3.4 10.3-.9 1.7-2 3.3-3.4 4.6-1.4 1.4-3.2 2.4-5.3 2.8-1.1.2-2.2.1-3.3-.3-1.1-.4-1.9-1.1-2.6-1.9-1.3-1.5-2-3.3-2.6-5-1-3.5-1.4-7.1-1.5-10.6-.1-3.5 0-7.1.1-10.6s.3-7 .4-10.5l.1-1.2 1.2-.1c1.9-.1 3.7-.1 5.6-.1 1.9 0 3.7.1 5.6.1 1.9.1 3.7.2 5.5.4 1.8.2 3.7.3 5.5.6v.6z"/></g><g><path d="M201.5 115.3c-2 1.6-2.2 4.4-2.7 6.6-.5 2.4-1.2 4.8-1.6 7.2-1 5.1-.4 10.4-.1 15.6.2 4 2.5 11.2 7.2 7 3.4-3.1 4.7-7.9 4.2-12.8-.4-4.7-.7-9.1-1.3-13.7-.4-2.6-2.2-9.6-5.3-10.2"/><path d="M201.6 115.4c-1.1 1.3-1.4 3-1.6 4.6-.1.8-.2 1.7-.3 2.6-.1.9-.3 1.7-.4 2.6-.3 1.7-.7 3.4-.9 5.1-.2 1.6-.4 3.3-.4 5-.2 3.4-.4 6.9-.3 10.3.1 1.7.6 3.4 1.4 4.8.4.7.9 1.4 1.5 1.7.6.4 1.2.3 1.8 0 .6-.3 1.2-.8 1.7-1.5.5-.6.9-1.3 1.3-1.9.8-1.4 1.3-2.9 1.5-4.5.3-1.6.3-3.2.1-4.8-.2-1.7-.3-3.5-.5-5.2l-.3-5.2c-.1-.9-.1-1.7-.2-2.6l-.1-1.3c0-.4-.1-.8-.2-1.2-.3-1.6-.6-3.3-1.2-4.9-.3-.8-.6-1.6-1-2.2-.4-.7-1-1.3-1.7-1.6l.1-.3c1 .1 1.8.6 2.5 1.3.7.7 1.2 1.4 1.6 2.2.9 1.6 1.6 3.3 2.1 5 .5 1.8.8 3.5 1 5.3.3 1.7.5 3.5.6 5.2.1 1.8.3 3.4.4 5.2.1 1.9 0 3.7-.5 5.6-.8 3.6-2.9 7.3-6.7 8.8-.5.2-1.1.2-1.6.2-.6-.1-1.1-.3-1.5-.6-.8-.6-1.3-1.5-1.7-2.3-.8-1.7-1.2-3.4-1.4-5.2-.1-.9-.2-1.7-.3-2.6l-.4-2.6c-.3-1.7-.5-3.5-.6-5.3-.1-1.8 0-3.6.3-5.4.3-1.8.8-3.5 1.3-5.1l1.5-5c.3-.9.6-1.7 1.1-2.5.5-.8 1.1-1.5 1.9-2l.1.3z"/></g><g><path d="M245.8 121.3c-1.5 5-2.7 9.2-2.7 14.8 0 4.7-.3 10.7 2.4 14.5 1 1.4 2 2 3.6 1 .8-1.8 2.7-3 3.5-5 .9-2.2 1.2-4.8 1.2-7.3 0-5.4-1-10.2-2.2-15.1-.3-1.1-.9-2.3-1.2-3.5-1.8-.7-2.7 1-4.5.8"/><path d="M246 121.4c-.3 2.9-.9 5.7-1.1 8.4-.2 1.4-.2 2.8-.3 4.1v2.1c0 .7 0 1.4-.1 2.1-.1 2.8-.6 5.6-.1 8.4.2 1.4.7 2.7 1.5 3.8.4.6.9 1 1.4 1.2.5.1 1-.1 1.5-.4l-.3.3c.5-1.5 1.6-2.6 2.2-3.6.3-.5.6-1 .7-1.5l.2-.9c.1-.3.1-.6.2-.9.5-2.5.4-5.1.2-7.7-.2-2.6-.5-5.2-.9-7.9l-.6-4c-.1-.4-.1-.6-.2-.9l-.3-.9c-.2-.7-.4-1.4-.5-2.2l.5.6c-.3-.1-.5-.2-.8-.2-.3 0-.6 0-1 .2l-1.2.3c-.4.1-.9.1-1.3 0l.3-.4c.8-.1 1.3-.5 2-1 .3-.2.7-.4 1.2-.5.5-.1 1-.1 1.5.1l.3.1.2.5c.2.6.5 1.1.8 1.7.2.3.3.6.5 1s.3.8.4 1.1c.4 1.3.8 2.6 1.1 4 .7 2.7 1.2 5.4 1.3 8.3.1 2.8 0 5.7-.8 8.5-.1.4-.2.7-.3 1l-.2.5-.2.5c-.4.8-.8 1.4-1.4 1.9-1 1.1-2 1.8-2.6 2.9l-.1.2-.1.1c-.4.2-.8.4-1.2.4-.4.1-.9 0-1.4-.1-.9-.4-1.3-1.1-1.8-1.6-.8-1.3-1.4-2.7-1.8-4.1-.8-2.8-1.3-5.8-1.5-8.7 0-.7-.1-1.4-.1-2.1 0-.7 0-1.5.1-2.2.1-1.5.3-2.9.7-4.4.7-2.9 1.7-5.6 3.1-8.1h.3z"/></g><g><path d="M192.5 109.2c1.5.8 2.8 1.4 4.2 2l4.1 1.7c1.4.6 2.8 1.3 4.2 2.1 1.3.8 2.7 1.9 3.6 3.3-1.6-.3-3.1-.7-4.6-1.1-1.5-.4-3-.9-4.4-1.5-1.5-.6-2.9-1.4-4.2-2.5-1.2-1.1-2.4-2.4-2.9-4z"/></g><g><path d="M243.2 122.8c1.2-.8 2.2-1.6 3.3-2.4 1.1-.7 2.2-1.5 3.6-2 1.2-.4 2.4-.9 3.8-1.3 1.3-.3 2.9-.6 4.3-.1-1.3.8-2.2 1.6-3.4 2.3-1.1.7-2.3 1.5-3.6 2-1.1.4-2.4 1-3.7 1.4-1.4.3-2.9.5-4.3.1z"/></g><g><radialGradient id="f" cx="181.704" cy="187.484" r="26.227" gradientUnits="userSpaceOnUse"><stop offset="0" stop-color="#7f1719"/><stop offset=".39" stop-color="#83181a"/><stop offset=".878" stop-color="#8f1a1d"/><stop offset="1" stop-color="#931b1e"/></radialGradient><path fill="url(#f)" d="M148 172l64.3 24.7 3.1 6.3-60.2-1.7-4.2-13.8 15.3 1.5-16.6-4.3z"/><path d="M146.4 172.8c12.3 4.7 24.5 9.4 36.8 14.1l21.9 8.4c1.7.7 3.5 1.3 5.2 2 .8.3 2.4 4.6 3.2 6.2 1.1-.4 2.1-.9 3.2-1.3-13.4-.4-26.9-.7-40.3-1.1-6.3-.2-12.6-.3-18.8-.5-1.4 0-.5-.2-.4.2-.4-1.4-.8-2.7-1.2-4.1-1-3.2-2-6.5-3-9.7-1.1.4-2.1.9-3.2 1.3l15.3 1.5c.6.1 4.1-1.3 2.8-1.6-5.2-1.4-10.4-2.7-15.6-4.1-1.4-.4-1-2.3-1.3-4.5-.4-2.7-.7-5.5-1.1-8.2-.1-.8-4 0-3.9 1 .6 4.2 1.1 8.4 1.7 12.7.1.1.2.2.4.3 5.6 1.4 11.1 2.9 16.7 4.3.9-.5 1.9-1.1 2.8-1.6l-15.3-1.5c-.5 0-3.5.4-3.2 1.3l4.2 13.8c.1.3.5.3.7.3 20.1.5 40.1 1.1 60.2 1.6.4 0 3.6-.5 3.2-1.3-.7-1.4-2-6-3.4-6.6-1.4-.5-2.7-1-4.1-1.6-7.2-2.8-14.4-5.5-21.6-8.3-12.9-4.9-25.7-9.9-38.6-14.8-1-.1-4.5 1.3-3.3 1.8z"/></g><g><radialGradient id="g" cx="283.407" cy="203.195" r="35.226" gradientTransform="matrix(1 0 0 .5 0 101.598)" gradientUnits="userSpaceOnUse"><stop offset="0" stop-color="#7f1719"/><stop offset=".28" stop-color="#82181a"/><stop offset=".519" stop-color="#8a1b1d"/><stop offset=".743" stop-color="#982022"/><stop offset=".956" stop-color="#ac2528"/><stop offset="1" stop-color="#b12729"/></radialGradient><path fill="url(#g)" d="M236.3 196l71.2-8.2-4.1 14.2 6.9-14.5 20.1-.6-5.2 13s-17.9 4.1-14.9 4.5c3 .3 13.8-2.4 13.8-2.4s-.3 9.4-1.3 9.4-20.9 8.1-20.9 8.1l3.7-10.8-5.4 10.6-16.8-7.1-13.1-.4-34-8.8v-7z"/><path d="M235.5 196.8c23.7-2.7 47.5-5.5 71.2-8.2-.4-.2-.7-.3-1.1-.5-1.4 4.7-2.7 9.4-4.1 14.2-.3 1 3.4.2 3.8-.6 2.3-4.8 4.6-9.7 6.9-14.5l-2.7 1.2 20.1-.6c-.4-.2-.7-.3-1.1-.5-1.7 4.3-3.5 8.7-5.2 13 .6-.3 1.2-.7 1.7-1-3.2.7-6.3 1.5-9.5 2.3-1.7.4-6.7 1.1-7.5 3-.1.1 0 .3.1.4 1.4 1.2 5.5 0 7.1-.3 3-.5 6.1-1.2 9-2-.7 0-1.4-.1-2.1-.2-.1 2.7-.2 5.5-.7 8.2-.3 1.6 2.7-.4 1.1 0-.4.1-.7.2-1.1.3-1.2.4-2.4.8-3.5 1.3-5.6 2.1-11.1 4.4-16.6 6.6.9.1 1.7.1 2.6.2 1.2-3.6 2.4-7.2 3.7-10.8.3-1-3.4-.2-3.8.6-1.8 3.5-3.6 7-5.4 10.6 1.2-.4 2.3-.7 3.5-1.1-5.6-2.3-11.2-4.7-16.8-7-2.3-1-6.4-.3-8.9-.4-2.5-.1-3.9 0-5.9-.5-7.8-2-15.5-4-23.3-6-2.8-.7-5.7-1.5-8.5-2.2-.7-.2-.2-.7-.2-2v-4.9c0-.7-3.9-.2-3.9 1v7c.1.1.2.2.4.3 11.2 2.9 22.4 5.8 33.7 8.7 4.1 1.1 10.4-.7 13.7.6 5.5 2.3 11.1 4.6 16.6 7 .9.4 3-.2 3.5-1.1 1.8-3.5 3.6-7 5.4-10.6-1.3.2-2.5.4-3.8.6-1.2 3.6-2.4 7.2-3.7 10.8-.3 1 2.3.3 2.6.2 6-2.5 12-4.9 18.1-7.2 1.4-.5 3.6-.6 4.4-2.2 1.2-2.4.8-6.5.9-9.1 0-.6-1.9-.2-2.1-.2-1.6.4-3.1.7-4.7 1.1-1.4.3-2.9.6-4.4.8-.8.1-3.9 1.2-2.8.8 3.8-1.4 7.9-2.2 11.9-3.1 2.3-.6 3.1-.9 4-3.2l4.5-11.1c.2-.6-.8-.5-1.1-.5l-20.1.6c-.8 0-2.3.3-2.7 1.2-2.3 4.8-4.6 9.7-6.9 14.5 1.3-.2 2.5-.4 3.8-.6 1.4-4.7 2.7-9.4 4.1-14.2.2-.6-.8-.6-1.1-.5-23.7 2.7-47.5 5.5-71.2 8.2-1.3.1-4.4 1.9-1.9 1.6z"/></g><g><radialGradient id="h" cx="211.777" cy="210.978" r="11.038" gradientUnits="userSpaceOnUse"><stop offset="0" stop-color="#7f1719"/><stop offset=".39" stop-color="#83181a"/><stop offset=".878" stop-color="#8f1a1d"/><stop offset="1" stop-color="#931b1e"/></radialGradient><path fill="url(#h)" d="M199.7 219.2c.9-4.6 1.9-11.3 6.5-13.5.1-.2 0-.3.1-.4 3.8-2.1 6-4.1 10.8-3.8.4 1.8-3 3.8-4.1 5-1.1 1.2-3.4 3-3.9 4.5-.2.2-.2.1-.4.4 2.2-.8 4.8-3.1 6.5-4.7 1.8-1.7 4.6-4.6 6.9-2.3.1.9.7 1.4 1.2 2 .1.1 0 .3.1.4 2.2 1.4-.3 4.4-1.7 5.2-.4 2.7-7.3 5.2-9.5 6-1.6.6-12.3 5-12.5 1.3"/><path d="M201.6 218.9c.7-3.9 1.4-7.8 3.7-11.1 2.1-3.1 7.6-5.4 10.9-5.4-.4-.2-.8-.5-1.1-.7-.2 2.1-2.6 3.3-4 4.7-1.4 1.4-2.6 3.3-4.1 4.6-1.5 1.4 1.5 1.2 2.3.9 3.1-1.4 5.6-3.5 8.1-5.9 2.1-2 2.8.1 4 1.4 2.3 2.4-1.2 3.1-1.8 4.8-.8 2.3-17.4 10-18.2 6.5-.3-1.2-4.1-.2-3.9 1 1.5 6.4 21.4-3.6 24.2-5.6 1.1-.9 3-3.2 3.6-4.4.9-1.8.3-5-1.6-6.2-6.1-4-11.1 4.8-15.9 7 .8.3 1.5.6 2.3.9 1.8-1.6 3.1-3.7 4.9-5.4 1.5-1.4 3.7-2.6 3.9-4.9 0-.6-.6-.7-1.1-.7-2.8 0-5.3.5-7.8 1.6-1.1.5-5.5 2.2-5.7 3.5-.1.5-1.5 1.2-1.8 1.5-.9 1-1.5 2-2.2 3.1-1.6 2.8-2 6.3-2.6 9.4-.2 1.2 3.7.6 3.9-.6z"/></g><g><radialGradient id="i" cx="235.338" cy="213.665" r="10.538" gradientUnits="userSpaceOnUse"><stop offset="0" stop-color="#7f1719"/><stop offset=".39" stop-color="#83181a"/><stop offset=".878" stop-color="#8f1a1d"/><stop offset="1" stop-color="#931b1e"/></radialGradient><path fill="url(#i)" d="M229 207.7c-.4 3.5 1.8 7.9 3.2 10.7.9 1.7 1.4 3 2.6 4.4 1.1 1.2 2.6 2.2 3.6 3.4.8.2 1.4.9 2.3.8.1-.1 0-.3.1-.4.1 0 .2 0 .3-.1.4-1.8 1.2-3.5 1-5.5-.2-1.8-.6-3.7-1-5.5-.4-1.9-.7-3.4-1.7-5.2-.7-1.3-1.3-3.5-2.5-4.5-1-2.4-4-4.2-6.2-5.5-.4 1.8.7 3.3 1.1 5 .4 1.8 1 3.4 1.4 5.1.1.3.4.5.5 1 .1.1.3 0 .5 0 .1.2.1.4.2.6-.6-.2-1.1-.7-1.6-1-.1-.1 0-.3-.1-.4-1.6-.9-2-3.7-3.9-4.3-.1.6-.1 1.3.1 1.8"/><path d="M227.1 208.2c-.1 6.8 5 17.6 12 19.5.7.2 3.4-.3 3.5-1.2 0-.1 0-.3.1-.4-.8.4-1.5.8-2.3 1.2.1 0 .2 0 .3-.1.5-.1 2.1-.4 2.3-1 2.7-9.7-1.6-21.3-10.3-26.4-.7-.4-3.7.2-3.8 1.2-.1 2.3 1 4.5 1.5 6.7.5 1.8 1.7 3.6 2.1 5.1 1.3-.4 2.5-.8 3.8-1.2-2.5-1.4-3.2-4.4-5.6-5.8-.7-.4-3.7.2-3.8 1.2-.1.6-.1 1.2.1 1.8.1.7 4-.2 3.9-1-.2-.6-.2-1.2-.1-1.8-1.3.4-2.5.8-3.8 1.2 2.4 1.4 3.1 4.4 5.6 5.8.6.3 4-.3 3.8-1.2-.1-.2-.1-.4-.2-.6-.1-.1-.2-.2-.3-.2-1.3-.1-3.1-9.5-3.1-11-1.3.4-2.5.8-3.8 1.2 8.5 5 12.8 16.4 10.2 25.8.8-.3 1.5-.7 2.3-1-.1 0-.2 0-.3.1-.6.1-2.2.4-2.3 1.2 0 .1 0 .3-.1.4 1.2-.4 2.4-.8 3.5-1.2-6.5-1.8-11.4-12.8-11.3-19.1-.1-.8-3.9-.3-3.9.8z"/></g><g><radialGradient id="j" cx="225.639" cy="200.329" r="12.09" gradientUnits="userSpaceOnUse"><stop offset="0" stop-color="#7f1719"/><stop offset=".251" stop-color="#871a1c"/><stop offset=".679" stop-color="#9d2123"/><stop offset="1" stop-color="#b12729"/></radialGradient><path fill="url(#j)" d="M212.2 199.2c.4-1.2-.1-2.6.4-3.8.3-.9 1.4-2 2.1-2.6 1.8-1.5 4-1.9 6.2-2.1 2.8-.3 4.8.5 7.2 1.3 2.1.7 4.4 1.2 6.5 2.1 1.8.8 3.7 1.9 4.7 3.6 1.4 2.5-.3 3.3-1 5.5-2.5 2.1-3.6 4.9-7 6-3.6 1.2-7.4 1.3-10.9 0-1.2-1.9-3.4-3.3-5-4.7-.9-.8-5.4-3.7-2.9-5.3"/><path d="M214.1 198.9c.3-2.1.1-3.7 1.6-5.4 2.7-3.2 7.5-1.7 10.8-.7 3.5 1.2 13.2 2.9 10.9 8.5-2.7 6.5-11.4 10.8-17.1 5.1-1.1-1.1-8.1-5.3-6.1-7.3 1-1-2.8-.6-3.5.1-2 2 .2 3.8 1.8 5.2 2.5 2.1 5.2 5.6 8.4 6.2 4.3.7 8.4.3 12.4-1.4 2.1-.9 6-4.2 6.9-6.3 1.8-4.1 1.9-6.2-2.4-8.9-3.2-2-8.8-3.7-12.6-4.1-3.1-.3-6.5-.1-9.3 1.2-4.2 1.9-4.9 4.2-5.5 8.4-.3 1.2 3.5.5 3.7-.6z"/></g><path fill="#7F1719" d="M329.3 188.4c-1.1 1.4-2.2 3.7-3 5.5-.4 1-.8 1.9-1.1 2.8-.5 1.4-.2 1.8-1.5 2.2-2.2.6-4.4.4-6.5 1.3-1.6.7-6.4 2-8.1 2.3.6-2.1 4.5-4.5 5-6.6.4-1.9.9-4.7 2-6.3 1-1.5 4.3-1.2 6.1-1.4 2-.2 5.3.5 7-.3M310.8 206c1.9-.4 3.9-1 5.8-1.3 1.8-.3 3.8-1 5.5-1.1.2 1.2-.4 2.2-.5 3.3-.1 1.1.2 2.4-.3 3.3-.7 1.3-3 2.2-4.5 3-1.8.8-3.3 1.7-5 2.7-1.2.7-3.9 2.1-5.3 2.2-.3-1.8 1.1-2.8 1.7-4.1.1 0 .2 0 .3-.1.5-1.1 1.2-2.1 1.5-3.3.3-1.5.3-2.7 1-4M240.3 202.8c3.9 1.7 9.3 2.6 11.7 3.5 2.2.8 6.8 2.1 9.2 2.6 2.6.5 5 .9 7.5 1.7 4.9 1.5 7.7-.3 12.6.7 4.6.9 11.8 5.1 16.4 6.3 1 .3 2 .5 3.1.5.7-3 2.4-6.2 3.6-9.2-3.1.1-14.2-1.8-18.8-2.2-5.8-.5-25.4-3.3-31.2-4.4-2.8-.5-5.7-.5-8.5-1-2.4-.4-2.3-1.1-4.8-1-.1.2-.2 1.3-.3 1.4.6.7-.8.1-.6 1"/></svg>