<svg xmlns="http://www.w3.org/2000/svg" viewBox="0 0 161.1 188.7" fill="#333"><path d="M5.4 184c.2 3.4 2.6 4.6 5.6 4.6h143.4c2.4 0 5.3-1.2 5.5-4.7 4.6-61.3-3.7-109.2-14.6-120.2-7.7-7.8-24.8-10.6-47.2-12.8-.3-1.7-.6-3.6-1-5.6-.3-1.3-.5-2.7-.9-4.1-.2-.7-.3-1.4-.5-2.1-.2-.7-.4-1.5-.5-2.2-.4-1.5-.8-3-1.2-4.6-.5-1.6-.9-3.1-1.5-4.8-1.1-3.2-2.3-6.6-3.9-10-.8-1.7-1.7-3.4-2.9-5.2-.6-.9-1.2-1.8-2-2.7-.8-.7-1.7-1.6-2.8-2.4-.5-.4-1.2-.8-1.9-1.2-.3-.2-.7-.4-1.1-.5-.4-.2-.7-.3-1.3-.5l-.4-.1c-.1 0-.3-.1-.3-.1l-.3-.1h-.1l-.3-.1H74.5c-.3 0-.6-.1-.8-.1h-.8c-2.2-.1-4.2.1-6.1.3-3.8.6-7.3 1.5-10.5 2.5-3.3 1-6.3 2.1-9.1 3.2-1.1.4-2.2.8-3.2 1.2C39.8 4.7 32.2 0 23.5 0 10.5 0 0 10.5 0 23.5S10.5 47 23.5 47 47 36.5 47 23.5c0-.9-.1-1.8-.2-2.6 1.1-.4 2.3-.8 3.4-1.1 2.8-.9 5.7-1.7 8.7-2.4 3-.7 6.1-1.3 9-1.5 1.5-.1 2.9-.1 4.2 0h.5l.4.1h.2l.3.1c.1 0 0 0 0 0h-.1c-.2-.1-.1 0-.1 0h.1c.1.1.2.1.3.2.5.4 1.3 1.4 2 2.5s1.3 2.5 1.9 3.9c1.2 2.8 2.1 5.8 3 8.7.4 1.5.8 3 1.2 4.4.4 1.5.7 2.9 1 4.3.3 1.4.6 2.8.9 4.1.3 1.3.6 2.6.8 3.9.1.7.3 1.3.4 2-14.9-.8-36.6.3-44.5 1.8C19.3 56 16.9 71.3 15.5 76c-1.4 4.7-5.2 17.6-3.6 19.8 2.4 3.3 5.5 6.7 7.7 9.6 3.6 4.7 5.5 11.2.4 15.2-5.9 4.8-7.6 5.4-11.4 11-3 4.4-4.6 10.9-3.2 52.4zm47.3-52.7c-11.9-2.4-6.7-43.8 1.7-42.6 8.5 1.2 9.5 44.8-1.7 42.6zm28.2 43.8c-12.4 0-11.3-42.1-10-45.7s21.6-2.5 22.1 0c.4 2.5.3 45.7-12.1 45.7zm27.6-43.8c-11.9-2.4-6.7-43.8 1.7-42.6 8.5 1.2 9.5 44.8-1.7 42.6z"/></svg>