<?xml version="1.0" encoding="utf-8"?>
<!DOCTYPE svg PUBLIC "-//W3C//DTD SVG 1.1//EN" "http://www.w3.org/Graphics/SVG/1.1/DTD/svg11.dtd">
<svg version="1.1" viewBox="120.8 111 160.996 189" fill="#333" xmlns="http://www.w3.org/2000/svg">
<path d="M126.1,295.4c0.2,3.4,2.6,4.6,5.6,4.6H275c2.4,0,5.3-1.2,5.5-4.7
    c4.6-61.3-3.7-109.2-14.6-120.2c-7.7-7.8-24.8-10.6-47.2-12.8c-0.3-1.7-0.6-3.6-1-5.6c-0.3-1.3-0.5-2.7-0.9-4.1
    c-0.2-0.7-0.3-1.4-0.5-2.1c-0.2-0.7-0.4-1.5-0.5-2.2c-0.4-1.5-0.8-3-1.2-4.6c-0.5-1.6-0.9-3.1-1.5-4.8c-1.1-3.2-2.3-6.6-3.9-10
    c-0.8-1.7-1.7-3.4-2.9-5.2c-0.6-0.9-1.2-1.8-2-2.7c-0.8-0.9-1.6-1.8-2.7-2.7c-0.5-0.4-1.2-0.8-1.9-1.2c-0.3-0.2-0.7-0.4-1.1-0.5
    c-0.4-0.2-0.7-0.3-1.3-0.5l-0.4-0.1c-0.1,0-0.3-0.1-0.3-0.1l-0.3-0.1l-0.1,0l-0.3-0.1l-0.1,0l-0.2,0l-0.4,0c-0.3,0-0.6-0.1-0.8-0.1
    l-0.8,0c-2.2-0.1-4.2,0.1-6.1,0.3c-3.8,0.6-7.3,1.5-10.5,2.5c-3.3,1-6.3,2.1-9.1,3.2c-1.1,0.4-2.2,0.8-3.2,1.2
    c-4.1-7-11.7-11.8-20.4-11.8c-13,0-23.5,10.5-23.5,23.5s10.5,23.5,23.5,23.5s23.5-10.5,23.5-23.5c0-0.9-0.1-1.8-0.2-2.6
    c1.1-0.4,2.3-0.8,3.4-1.1c2.8-0.9,5.7-1.7,8.7-2.4c3-0.7,6.1-1.3,9-1.5c1.5-0.1,2.9-0.1,4.2,0l0.5,0l0.4,0.1l0.2,0l0,0l0.3,0.1
    c0.1,0,0,0,0,0c0,0-0.1,0-0.1,0c-0.2-0.1-0.1,0-0.1,0c0,0,0,0,0.1,0c0.1,0.1,0.2,0.1,0.3,0.2c0.5,0.4,1.3,1.4,2,2.5
    c0.7,1.1,1.3,2.5,1.9,3.9c1.2,2.8,2.1,5.8,3,8.7c0.4,1.5,0.8,3,1.2,4.4c0.4,1.5,0.7,2.9,1,4.3c0.3,1.4,0.6,2.8,0.9,4.1
    c0.3,1.3,0.6,2.6,0.8,3.9c0.1,0.7,0.3,1.3,0.4,2c-14.9-0.8-36.6,0.3-44.5,1.8c-21.1,4.2-23.4,19.4-24.8,24.1
    c-1.4,4.7-5.2,17.6-3.6,19.8c2.4,3.3,5.5,6.7,7.7,9.6c3.6,4.7,5.5,11.2,0.4,15.2c-5.9,4.8-7.6,5.4-11.4,11
    C126.3,247.4,124.7,253.8,126.1,295.4z M173.4,242.6c-11.9-2.4-6.7-43.8,1.7-42.6C183.6,201.2,184.6,244.8,173.4,242.6z
    M201.6,286.5c-12.4,0-11.3-42.1-10-45.7s21.6-2.5,22.1,0C214.1,243.3,214,286.5,201.6,286.5z M229.2,242.6
    c-11.9-2.4-6.7-43.8,1.7-42.6C239.4,201.2,240.4,244.8,229.2,242.6z"/>
</svg>
