<?xml version="1.0" encoding="utf-8"?>
<!DOCTYPE svg PUBLIC "-//W3C//DTD SVG 1.1//EN" "http://www.w3.org/Graphics/SVG/1.1/DTD/svg11.dtd">
<svg version="1.1" viewBox="100 100 200 200" fill="#2b2b2b" xmlns="http://www.w3.org/2000/svg">
    <path d="M290.1,100h-180c-5.5,0-10,4.5-10,10v180c0,5.5,4.5,10,10,10h16.1
            c-1.7-45.7-0.1-52.5,3.1-57c3.9-5.6,5.5-6.3,11.4-11c5-4,3.2-10.5-0.4-15.2c-2.2-2.9-5.3-6.3-7.7-9.6c-1.5-2.2,2.2-15.1,3.6-19.8
            c1.4-4.7,3.8-20,24.8-24.1c7.9-1.6,29.6-2.7,44.5-1.8c-0.1-0.6-0.3-1.3-0.4-2c-0.3-1.2-0.5-2.5-0.8-3.9c-0.3-1.3-0.6-2.7-0.9-4.1
            c-0.3-1.4-0.7-2.8-1-4.3c-0.4-1.5-0.7-2.9-1.2-4.4c-0.8-3-1.8-5.9-3-8.7c-0.6-1.4-1.2-2.7-1.9-3.9c-0.7-1.1-1.4-2.1-2-2.5
            c-0.1-0.1-0.2-0.2-0.3-0.2c0,0,0,0-0.1,0c0,0-0.1,0,0.1,0c0,0,0.1,0,0.1,0c0,0,0.1,0,0,0l-0.3-0.1l0,0l-0.2,0l-0.4-0.1l-0.5,0
            c-1.3-0.1-2.7-0.1-4.2,0c-2.9,0.2-6,0.8-9,1.5c-3,0.7-5.9,1.6-8.7,2.4c-1.2,0.4-2.3,0.8-3.4,1.1c0.1,0.9,0.2,1.7,0.2,2.6
            c0,13-10.5,23.5-23.5,23.5s-23.5-10.5-23.5-23.5s10.5-23.5,23.5-23.5c8.7,0,16.3,4.7,20.4,11.8c1-0.4,2.1-0.8,3.2-1.2
            c2.8-1.1,5.9-2.2,9.1-3.2c3.3-1,6.7-2,10.5-2.5c1.9-0.3,3.9-0.4,6.1-0.3l0.8,0c0.3,0,0.6,0.1,0.8,0.1l0.4,0l0.2,0l0.1,0l0.3,0.1
            l0.1,0l0.3,0.1c0,0,0.2,0,0.3,0.1l0.4,0.1c0.6,0.2,0.9,0.3,1.3,0.5c0.4,0.2,0.7,0.3,1.1,0.5c0.7,0.4,1.3,0.8,1.9,1.2
            c1.1,0.9,2,1.8,2.7,2.7c0.8,0.9,1.4,1.8,2,2.7c1.2,1.8,2.1,3.5,2.9,5.2c1.6,3.4,2.9,6.8,3.9,10c0.5,1.6,1,3.2,1.5,4.8
            c0.5,1.6,0.8,3.1,1.2,4.6c0.2,0.7,0.4,1.5,0.5,2.2c0.2,0.7,0.3,1.4,0.5,2.1c0.3,1.4,0.6,2.8,0.9,4.1c0.4,2,0.7,3.9,1,5.6
            c22.4,2.2,39.5,5.1,47.2,12.8c11.1,11.3,19.8,61.3,14.2,124.8h10c5.5,0,10-4.5,10-10V110C300.1,104.5,295.7,100,290.1,100z"/>
    <path d="M191.6,240.8c-1.3,3.6-2.4,45.7,10,45.7s12.5-43.2,12.1-45.7C213.2,238.4,192.8,237.3,191.6,240.8z"/>
    <path d="M175.1,200c-8.5-1.2-13.6,40.2-1.7,42.6C184.6,244.8,183.6,201.2,175.1,200z"/>
    <path d="M231,200c-8.5-1.2-13.6,40.2-1.7,42.6C240.4,244.8,239.4,201.2,231,200z"/>
</svg>
