<svg xmlns="http://www.w3.org/2000/svg" viewBox="0 0 510.29 127.91"><defs><style>.cls-1{fill:#27aae1}.cls-2{fill:#414042}.cls-3{fill:#58595b}.cls-4{fill:#1b75bc}</style></defs><g id="Layer_2" data-name="Layer 2"><g id="Layer_1-2" data-name="Layer 1"><path class="cls-1" d="M133.48 43.13a78.64 78.64 0 0 1 12.77-.9c6 0 9.72.58 12.89 2.46a9.5 9.5 0 0 1 5.25 8.55c0 3.89-2.26 7.52-7.19 9.34v.12c5 1.37 8.68 5.12 8.68 10.76a11.64 11.64 0 0 1-4.53 9.27c-3.18 2.53-8.49 4-17.18 4a75.34 75.34 0 0 1-10.69-.73zm9.79 16.72h3.24c5.18 0 8-2.14 8-5.38s-2.53-5-7-5a26.81 26.81 0 0 0-4.21.26zm0 19.38a31 31 0 0 0 3.82.13c4.47 0 8.43-1.69 8.43-6.29 0-4.4-4-6.15-8.88-6.15h-3.37zM182.47 45.73c0 2.72-2.07 4.92-5.31 4.92a4.81 4.81 0 0 1-5.16-4.92c-.07-2.86 2-5 5.18-5a4.94 4.94 0 0 1 5.29 5zm-10.17 40.5V54.54h9.84v31.69zM190 77.61a19.33 19.33 0 0 0 8.5 2.4c3 0 4.21-1 4.21-2.66s-1-2.4-4.67-3.63c-6.54-2.2-9.07-5.77-9-9.53 0-5.89 5.06-10.36 12.9-10.36a21.28 21.28 0 0 1 8.94 1.81l-1.75 6.8a15.61 15.61 0 0 0-6.87-1.81c-2.39 0-3.75 1-3.75 2.59s1.23 2.27 5.11 3.63c6 2.08 8.56 5.12 8.62 9.79 0 5.89-4.66 10.24-13.73 10.24a22.43 22.43 0 0 1-10.25-2.21zM225.75 73.53c.33 4.08 4.35 6 8.95 6a28 28 0 0 0 8.75-1.29l1.29 6.67a31.18 31.18 0 0 1-11.47 1.95c-10.76 0-16.91-6.22-16.91-16.14 0-8 5-16.91 16-16.91 10.23 0 14.12 8 14.12 15.81a23.62 23.62 0 0 1-.32 3.89zm11.6-6.74c0-2.4-1-6.42-5.57-6.42-4.15 0-5.83 3.76-6.09 6.42zM276.17 85.45a24 24 0 0 1-8.81 1.43c-10.24 0-16.79-6.22-16.79-16.2 0-9.27 6.35-16.85 18.15-16.85a22.74 22.74 0 0 1 7.51 1.23l-1.55 7.32a13.49 13.49 0 0 0-5.51-1c-5.18 0-8.55 3.69-8.49 8.88 0 5.83 3.89 8.88 8.69 8.88a15.21 15.21 0 0 0 5.63-1zM293.66 45.47v9.07h7.07v7.26h-7.07v11.47c0 3.82.91 5.57 3.89 5.57a16.07 16.07 0 0 0 2.92-.26l.06 7.45a19.21 19.21 0 0 1-6.41.85 10.26 10.26 0 0 1-7.39-2.73c-1.81-1.88-2.72-4.92-2.72-9.39v-13h-4.21v-7.22h4.2v-6.87z"/><path class="cls-2" d="M313 42.55v18.28h21.12V42.55h5.71v43.68h-5.71V65.75H313v20.48h-5.6V42.55zM377.84 70.29c0 11.6-8 16.65-15.62 16.65-8.49 0-15-6.22-15-16.14 0-10.49 6.87-16.65 15.55-16.65 8.98 0 15.07 6.54 15.07 16.14zm-24.84.32c0 6.87 4 12 9.52 12S372 77.54 372 70.48c0-5.31-2.66-12.05-9.4-12.05s-9.6 6.22-9.6 12.18zM384.25 80.4a15 15 0 0 0 7.52 2.26c4.15 0 6.09-2.07 6.09-4.66s-1.62-4.21-5.83-5.77c-5.64-2-8.3-5.12-8.3-8.88 0-5.05 4.09-9.2 10.83-9.2a15.74 15.74 0 0 1 7.71 1.94l-1.43 4.15a12.18 12.18 0 0 0-6.41-1.81c-3.37 0-5.25 1.94-5.25 4.27 0 2.6 1.88 3.76 6 5.32 5.44 2.07 8.23 4.79 8.23 9.46 0 5.51-4.28 9.4-11.73 9.4a17.94 17.94 0 0 1-8.81-2.14zM417.56 45.85v9h8.17v4.35h-8.17v16.92c0 3.89 1.1 6.09 4.28 6.09a12.38 12.38 0 0 0 3.3-.39l.26 4.28a14 14 0 0 1-5 .78 7.92 7.92 0 0 1-6.16-2.4c-1.62-1.69-2.2-4.47-2.2-8.17V59.2h-4.86v-4.34H412v-7.51zM438.49 46.05a3.53 3.53 0 0 1-7.06 0 3.47 3.47 0 0 1 3.57-3.56 3.38 3.38 0 0 1 3.49 3.56zm-6.35 40.18V54.86h5.7v31.37zM447.3 63.35c0-3.24-.06-5.9-.26-8.49h5.06l.32 5.19h.13a11.54 11.54 0 0 1 10.37-5.9c4.34 0 11.08 2.59 11.08 13.35v18.73h-5.7V68.15c0-5.06-1.88-9.27-7.26-9.27a8.11 8.11 0 0 0-7.65 5.83 8.24 8.24 0 0 0-.39 2.66v18.86h-5.7zM510.29 54.86c-.13 2.27-.26 4.8-.26 8.62v18.21c0 7.2-1.43 11.6-4.47 14.32s-7.45 3.76-11.41 3.76c-3.76 0-7.9-.9-10.43-2.59l1.42-4.34a17.79 17.79 0 0 0 9.21 2.46c5.83 0 10.11-3 10.11-11v-3.5h-.13a11.19 11.19 0 0 1-10 5.25c-7.78 0-13.35-6.61-13.35-15.3 0-10.62 6.93-16.65 14.13-16.65 5.44 0 8.42 2.85 9.78 5.44h.11l.26-4.73zm-5.9 12.38a8.11 8.11 0 0 0-.32-2.59 8.22 8.22 0 0 0-8-6c-5.45 0-9.33 4.6-9.33 11.86 0 6.16 3.11 11.28 9.26 11.28a8.35 8.35 0 0 0 7.91-5.83 10.11 10.11 0 0 0 .45-3.05z"/><path class="cls-3" d="M27.34 55.44H8.2a4.25 4.25 0 0 0-4.09-3.54 4.11 4.11 0 0 0 0 8.21 4.16 4.16 0 0 0 4-3.54h8.61V61a3.64 3.64 0 0 0-2.95 3.47 3.51 3.51 0 1 0 4.07-3.43v-4.47h9.47a.57.57 0 0 0 .03-1.13zM4.11 59a3 3 0 0 1 0-6c3.89-.18 3.83 5.78 0 6zm15.58 5.49a2.38 2.38 0 0 1-4.76 0c-.17-3.08 4.6-3.07 4.76-.01z"/><path class="cls-1" d="M106.83 58.88a3.13 3.13 0 0 0-3 2.52h-2.73V57a3.63 3.63 0 0 0 3-3.47 3.51 3.51 0 1 0-4.1 3.39v4.48h-9.67a.57.57 0 0 0 0 1.13h13.45a3.2 3.2 0 0 0 3 2.51 3.08 3.08 0 0 0 0-6.16zm-8.67-5.39a2.38 2.38 0 0 1 4.76 0c.17 3.07-4.6 3.06-4.76 0zM89.8 24.87a2.93 2.93 0 0 0 2.74 2.22 2.78 2.78 0 1 0-2.7-3.34h-5.77v-7.13a4.26 4.26 0 0 0 3.55-4.09 4.11 4.11 0 1 0-8.22 0 4.18 4.18 0 0 0 3.55 4v19.2a.56.56 0 0 0 1.12 0V24.87zm2.74-2.21a1.65 1.65 0 0 1 0 3.3c-2.13.12-2.12-3.19 0-3.3zm-12-10.13a3 3 0 0 1 6 0c.16 3.84-5.81 3.82-6.01 0zM116.83 33.64a4.17 4.17 0 0 0-4 3.55H93.6a.56.56 0 0 0 0 1.12h10.88V44a2.92 2.92 0 0 0-2.21 2.74 2.78 2.78 0 1 0 3.34-2.69v-5.74h7.13a4.24 4.24 0 0 0 4.09 3.54 4.14 4.14 0 0 0 4.1-4.1c.13-2.32-1.93-3.99-4.1-4.11zM106.7 46.78a1.65 1.65 0 0 1-3.3 0c-.12-2.13 3.19-2.11 3.3 0zm10.13-6.05c-3.85.21-3.83-5.76 0-6a3 3 0 0 1 0 6z"/><path class="cls-3" d="M112.19 66.81a4.17 4.17 0 0 0-4 3.54H89a.57.57 0 0 0 0 1.13h10.84v5.73A2.9 2.9 0 0 0 97.63 80a2.78 2.78 0 1 0 3.34-2.7v-5.82h7.13a4.24 4.24 0 0 0 4.09 3.52c2.31.13 4-2 4.1-4.1.13-2.3-1.97-3.97-4.1-4.09zM102.06 80a1.66 1.66 0 0 1-3.31 0c-.11-2.18 3.19-2.17 3.31 0zm10.13-6c-3.85.2-3.83-5.76 0-6a3 3 0 0 1 0 5.9z"/><path class="cls-1" d="M32.07 33.64H12.92a4.24 4.24 0 0 0-4.08-3.54 4.2 4.2 0 0 0-4.11 4.11 4.15 4.15 0 0 0 4.11 4.1 4.06 4.06 0 0 0 4-3.54h5.25v6.93a3.22 3.22 0 0 0-2.52 3 3.16 3.16 0 0 0 3.08 3.08 3.12 3.12 0 0 0 3.08-3.08 3 3 0 0 0-2.52-3v-7h12.86a.57.57 0 0 0 0-1.06zM8.84 37.19c-3.85.2-3.83-5.76 0-6a3 3 0 0 1 0 6zM58 21.26a2.81 2.81 0 0 0-2.7 2.21h-5.8v-7.13a4.25 4.25 0 0 0 3.55-4.09 4.11 4.11 0 0 0-8.21 0 4.16 4.16 0 0 0 3.54 4v5.23H40v-4.41a3.64 3.64 0 0 0 3-3.47 3.59 3.59 0 0 0-3.51-3.51 3.55 3.55 0 0 0-3.51 3.51 3.44 3.44 0 0 0 2.89 3.4v4.49h-5.38a3.22 3.22 0 0 0-3-2.52 3.16 3.16 0 0 0-3.08 3.08 3.12 3.12 0 0 0 3.08 3.08 3 3 0 0 0 3-2.52h14.89v12.87a.56.56 0 0 0 1.12 0V24.6h5.73A2.93 2.93 0 0 0 58 26.81a2.78 2.78 0 0 0 0-5.55zM37.05 13.6c-.16-3.08 4.61-3.06 4.77 0a2.39 2.39 0 0 1-4.77 0zM46 12.25a3 3 0 0 1 6 0c.13 3.85-5.83 3.83-6 0zm12 13.43c-2.14.12-2.12-3.19 0-3.3a1.65 1.65 0 0 1 0 3.3z"/><path class="cls-3" d="M74.9 4.11A4.19 4.19 0 0 0 70.8 0c-2.32-.13-4 2-4.11 4.1a4.08 4.08 0 0 0 3.55 4v9.39h-5.73a2.92 2.92 0 0 0-2.74-2.21A2.83 2.83 0 0 0 59 18.11a2.8 2.8 0 0 0 2.78 2.77 2.71 2.71 0 0 0 2.69-2.21h5.78v18.42a.56.56 0 0 0 1.12 0V8.2a4.24 4.24 0 0 0 3.53-4.09zM61.77 19.76c-2.13.11-2.12-3.19 0-3.31a1.66 1.66 0 0 1 0 3.31zm6-15.65c-.21-3.84 5.75-3.82 6 0a3 3 0 0 1-5.95 0zM79.06 119.77V90.82a.56.56 0 0 0-1.12 0v18.42h-5.73a2.9 2.9 0 0 0-2.74-2.24 2.78 2.78 0 1 0 2.7 3.33h5.77v9.35a4.24 4.24 0 0 0-3.54 4.09 4.14 4.14 0 0 0 4.1 4.1c2.32.13 4-2 4.11-4.1a4.16 4.16 0 0 0-3.55-4zm-9.59-8.32a1.65 1.65 0 0 1 0-3.3c2.13-.15 2.12 3.19 0 3.3zm6 12.35c-.21-3.85 5.76-3.83 6 0a3 3 0 0 1-5.95 0z"/><path class="cls-1" d="M102.07 89.9a3.56 3.56 0 0 0-3.43 2.94h-5a.57.57 0 0 0 0 1.13h5a3.62 3.62 0 0 0 3.47 2.94 3.51 3.51 0 1 0 0-7zm0 5.89c-3.07.16-3-4.6 0-4.77a2.39 2.39 0 0 1 0 4.77z"/><path class="cls-1" d="M92.85 115.37v-29a.56.56 0 0 0-1.12 0v18.43H86a2.93 2.93 0 0 0-2.74-2.22A2.78 2.78 0 1 0 86 106h5.78v9.35a4.24 4.24 0 0 0-3.54 4.08 4.11 4.11 0 1 0 4.66-4zm-9.59-8.32a1.65 1.65 0 0 1 0-3.3c2.13-.12 2.11 3.19 0 3.3zm6 12.34c-.21-3.84 5.76-3.82 6 0a3 3 0 0 1-5.95 0zM40.65 111.51v-19.2a.57.57 0 0 0-1.13 0v12.82h-6.93a3.2 3.2 0 0 0-3-2.51 3.08 3.08 0 1 0 3 3.64h7v5.19a4.24 4.24 0 0 0-3.59 4.09c-.13 2.32 2 4 4.11 4.11a4.09 4.09 0 0 0 .56-8.14zm-3.55 4c-.2-3.85 5.76-3.83 6 0a3 3 0 0 1-6 .03zM22.79 82.33v-4.48h5.15a.57.57 0 0 0 0-1.13H14.48a3.22 3.22 0 0 0-3-2.52 3.08 3.08 0 1 0 3 3.65h7.22v4.43a3.65 3.65 0 0 0-2.94 3.48 3.51 3.51 0 1 0 4.07-3.43zm-2.95 3.43c-.16-3.08 4.6-3.06 4.77 0a2.39 2.39 0 0 1-4.77 0zM58.78 106.24v-29a.56.56 0 0 0-1.12 0v24h-5.73a2.92 2.92 0 0 0-2.74-2.21 2.78 2.78 0 1 0 2.69 3.34h5.78v3.76a4.24 4.24 0 0 0-3.54 4.08c-.13 2.32 2 4 4.1 4.11a4.08 4.08 0 0 0 .56-8.13zm-9.59-2.73a1.66 1.66 0 0 1 0-3.31c2.13-.11 2.12 3.19 0 3.31zm6.05 6.75c-.21-3.84 5.76-3.82 6 0a3 3 0 0 1-6 0z"/><path class="cls-1" d="M91.41 28.49H30.46A4.44 4.44 0 0 0 26 32.92v60.94a4.44 4.44 0 0 0 4.42 4.43h61a4.44 4.44 0 0 0 4.42-4.43V32.92a4.44 4.44 0 0 0-4.43-4.43z"/><path class="cls-4" d="M61.24 70.76a6.68 6.68 0 0 1-4 6.34 16.3 16.3 0 0 1-7.36 1.5H35.71a2.23 2.23 0 0 1-2.52-2.52V53a2.23 2.23 0 0 1 2.52-2.52h13.55a25.66 25.66 0 0 1 5.27.41 9.55 9.55 0 0 1 4.82 2.63A6.1 6.1 0 0 1 61.24 58a18.7 18.7 0 0 1-.17 3.35 10.09 10.09 0 0 1-1.65 3.12l-.09.11a6.61 6.61 0 0 1 1.72 2.91 17.23 17.23 0 0 1 .19 3.27zm-6.45-1.56c0-.89-.7-1.43-2.06-1.63a28.65 28.65 0 0 0-3.1-.09h-10V73h9.67a21.49 21.49 0 0 0 3.17-.15c1.38-.25 2.14-.81 2.3-1.68.03-.17.04-.89.02-1.97zm.13-8.93c0-.24-.05-1-.13-2.19s-1.9-2-5.45-2h-9.57v5.8h9.77c1.69 0 2.75 0 3.17-.09 1.49-.18 2.23-.69 2.21-1.52zM88.53 76.08A2.24 2.24 0 0 1 86 78.6a8.62 8.62 0 0 1-2.63-.26 2.16 2.16 0 0 1-1.26-2.26v-8.6H70v8.6a2.23 2.23 0 0 1-2.52 2.52 9.43 9.43 0 0 1-2.67-.24 2.17 2.17 0 0 1-1.26-2.28V53a2.16 2.16 0 0 1 1.28-2.28 9 9 0 0 1 2.65-.24A2.23 2.23 0 0 1 70 53v8.9h12.1V53a2.16 2.16 0 0 1 1.28-2.26 8.37 8.37 0 0 1 2.62-.22A2.24 2.24 0 0 1 88.53 53z"/></g></g></svg>