<svg xmlns="http://www.w3.org/2000/svg" viewBox="0 0 241.66 78.82"><defs><style>.cls-1{fill:#0d1129;}.cls-2{fill:#03ddff;}.cls-3{fill:#fff;}</style></defs><g id="Layer_2" data-name="Layer 2"><g id="Layer_1-2" data-name="Layer 1"><path class="cls-1" d="M83.6,42.17h21.89a15.46,15.46,0,0,0,2.78-.23,9,9,0,0,0,2.17-.9,4.1,4.1,0,0,0,1.35-1.8,7,7,0,0,0,.53-3,6,6,0,0,0-1-3.82,4.23,4.23,0,0,0-3.15-1.5v-.07a10.47,10.47,0,0,0,1.43-.6,2.68,2.68,0,0,0,1-.83,3.62,3.62,0,0,0,.68-1.42,10.23,10.23,0,0,0,.22-2.33c0-2.1-.6-3.67-1.95-4.57s-3.37-1.28-6.15-1.28H83.6Zm6.9-8.85h12.29a4.22,4.22,0,0,1,1.88.37,1.77,1.77,0,0,1,.6,1.5,1.33,1.33,0,0,1-.68,1.28,3.61,3.61,0,0,1-1.8.37H90.5Zm0-8.17h12.14a2.22,2.22,0,0,1,1.5.45,2,2,0,0,1,0,2.7,2.78,2.78,0,0,1-1.5.37H90.5Z"/><rect class="cls-1" x="115.62" y="19.82" width="6.82" height="22.34"/><path class="cls-1" d="M125.81,36.39a6.84,6.84,0,0,0,.53,3,3.71,3.71,0,0,0,1.5,1.88,10,10,0,0,0,2.62.9,30.3,30.3,0,0,0,4.13.3h8.32a53.27,53.27,0,0,0,5.7-.3,8.66,8.66,0,0,0,3.3-1,4.2,4.2,0,0,0,1.65-2.1,11.85,11.85,0,0,0,.45-3.67,11,11,0,0,0-.53-3.9,4.35,4.35,0,0,0-1.95-2.1,11,11,0,0,0-3.82-.9c-1.58-.15-3.9-.22-6.83-.22-1.94,0-3.44-.08-4.49-.08a13,13,0,0,1-2.4-.3,1.5,1.5,0,0,1-1.05-.52,2.3,2.3,0,0,1-.23-1.13,1.48,1.48,0,0,1,.68-1.27,3.55,3.55,0,0,1,1.94-.45h7.58c1.5,0,2.4.15,2.77.52a2.22,2.22,0,0,1,.6,1.8h6.83V26.2a10.55,10.55,0,0,0-.3-2.85,4,4,0,0,0-1.13-2,5.71,5.71,0,0,0-2.62-1.27,18.27,18.27,0,0,0-4.58-.53h-9.59a22,22,0,0,0-5,.53,6.49,6.49,0,0,0-2.7,1.5,4.12,4.12,0,0,0-1.12,2.1,17.64,17.64,0,0,0-.23,3.07,14.19,14.19,0,0,0,.38,3.53,4,4,0,0,0,1.57,2,9.74,9.74,0,0,0,3.38,1,44.09,44.09,0,0,0,6.22.3c2.48,0,4.27,0,5.47.07a11.66,11.66,0,0,1,2.63.23c.67.15,1,.3,1.2.6a1.78,1.78,0,0,1,.3,1.2,1.46,1.46,0,0,1-.75,1.5,5.33,5.33,0,0,1-2.18.38h-8.4a4.34,4.34,0,0,1-2.32-.45,3.17,3.17,0,0,1-.67-2.11h-6.83Z"/><path class="cls-1" d="M184.67,34.37a10.18,10.18,0,0,0,.68,4,5.85,5.85,0,0,0,2,2.48,8.39,8.39,0,0,0,3,1.27,22.7,22.7,0,0,0,4.27.38h11a15.88,15.88,0,0,0,4.2-.53,6.81,6.81,0,0,0,2.55-1.42,4.52,4.52,0,0,0,1.2-2.1,10,10,0,0,0,.37-2.7v-2.1H207a5.16,5.16,0,0,1-.23,1.65,1.3,1.3,0,0,1-.6.9,2.6,2.6,0,0,1-1.2.45c-.45,0-1.12.07-2,.07H195.7c-1.58,0-2.63-.3-3.15-1a5.73,5.73,0,0,1-.83-3.52V29.79a5.34,5.34,0,0,1,.9-3.37c.6-.75,1.72-1.12,3.45-1.12h7.42a5.4,5.4,0,0,1,2.48.45,1.77,1.77,0,0,1,.75,1.65V28h6.89a20.25,20.25,0,0,0-.37-4.13,5.29,5.29,0,0,0-1.57-2.55,7.54,7.54,0,0,0-3.3-1.35,29,29,0,0,0-5.78-.45h-8a22.7,22.7,0,0,0-4.27.38,7.18,7.18,0,0,0-3,1.27,5.85,5.85,0,0,0-2,2.48,10.21,10.21,0,0,0-.68,4Z"/><polygon class="cls-1" points="215.49 25.37 225.16 25.37 225.16 42.17 232.06 42.17 232.06 25.37 241.66 25.37 241.66 19.82 215.49 19.82 215.49 25.37"/><path class="cls-1" d="M83.59,59.17V48h2.69v4.29h6.94V48h2.71V59.17H93.22V54.5H86.28v4.67Z"/><path class="cls-1" d="M123.88,55.35a6.88,6.88,0,0,1-.2,1.8,2.46,2.46,0,0,1-.66,1.16,2.72,2.72,0,0,1-1.24.66,7.86,7.86,0,0,1-2,.2h-4.94A7.5,7.5,0,0,1,113,59a3.05,3.05,0,0,1-1.29-.68,2.67,2.67,0,0,1-.72-1.18,5.89,5.89,0,0,1-.23-1.75V52a6.8,6.8,0,0,1,.23-1.92,2.54,2.54,0,0,1,.7-1.21,2.69,2.69,0,0,1,1.26-.64,8.24,8.24,0,0,1,2-.2h4.94a6.46,6.46,0,0,1,2.33.35,2.36,2.36,0,0,1,1.31,1.21,5.62,5.62,0,0,1,.43,2.41Zm-10.47-.27a2.86,2.86,0,0,0,.19,1.14,1,1,0,0,0,.63.57,3.91,3.91,0,0,0,1.28.16h3.57a4,4,0,0,0,1.32-.16,1,1,0,0,0,.62-.55,3.2,3.2,0,0,0,.17-1.18V52.21A2.9,2.9,0,0,0,121,51a1.11,1.11,0,0,0-.65-.59,4,4,0,0,0-1.3-.16h-3.47a3.77,3.77,0,0,0-1.31.17,1.1,1.1,0,0,0-.64.59,3.53,3.53,0,0,0-.2,1.25Z"/><path class="cls-1" d="M144.4,48a6.16,6.16,0,0,1,2.2.34,2.39,2.39,0,0,1,1.24,1,3.5,3.5,0,0,1,.4,1.78h-2.69a1.16,1.16,0,0,0-.31-.8,1.69,1.69,0,0,0-1.07-.24h-4.52c-.87,0-1.3.38-1.3,1.16a1.07,1.07,0,0,0,.32.92,1.73,1.73,0,0,0,1,.22h4.91a11.14,11.14,0,0,1,1.72.11,2.6,2.6,0,0,1,1.12.43,2,2,0,0,1,.7,1,5.93,5.93,0,0,1,.23,1.82,4.18,4.18,0,0,1-.39,1.94,2.35,2.35,0,0,1-1.23,1.11,5.53,5.53,0,0,1-2.17.35h-5.43a6.22,6.22,0,0,1-2.25-.33,2.2,2.2,0,0,1-1.19-1,4,4,0,0,1-.35-1.8h2.75a.94.94,0,0,0,.39.74,1.45,1.45,0,0,0,.94.32h4.51a2.39,2.39,0,0,0,1.32-.29,1.08,1.08,0,0,0,.43-1,1.68,1.68,0,0,0-.14-.72,1,1,0,0,0-.55-.42,3.49,3.49,0,0,0-1.14-.15h-4a12,12,0,0,1-2-.14,3,3,0,0,1-1.26-.49,2.07,2.07,0,0,1-.71-1,5.49,5.49,0,0,1-.22-1.72,4.22,4.22,0,0,1,.23-1.46,2.25,2.25,0,0,1,.73-1,3.35,3.35,0,0,1,1.28-.55,8.7,8.7,0,0,1,1.92-.18Z"/><path class="cls-1" d="M160,48h12.15v2.23h-4.75v9h-2.69v-9H160Z"/><path class="cls-1" d="M188.43,59.17h-2.69V48h2.69Z"/><path class="cls-1" d="M201.19,59.17V48h4.52l6.86,9h.37V48h2.69V59.17H211l-6.77-9h-.37v9Z"/><path class="cls-1" d="M238.85,51.44a1.18,1.18,0,0,0-.45-1,2.86,2.86,0,0,0-1.59-.32h-4a2.25,2.25,0,0,0-1.68.51,2.7,2.7,0,0,0-.49,1.78l0,2.7a3.33,3.33,0,0,0,.19,1.2,1.08,1.08,0,0,0,.63.59,4.22,4.22,0,0,0,1.35.17h4a5.9,5.9,0,0,0,1.26-.1,1.15,1.15,0,0,0,.67-.33A1,1,0,0,0,239,56l0-1.37h-4.45v-2h7.14v3a4.46,4.46,0,0,1-.42,2.11,2.36,2.36,0,0,1-1.3,1.12,6.68,6.68,0,0,1-2.37.34h-5.45a5.92,5.92,0,0,1-2.31-.39,2.74,2.74,0,0,1-1.37-1.25,4.49,4.49,0,0,1-.46-2.18V52.07a5.76,5.76,0,0,1,.44-2.39,2.54,2.54,0,0,1,1.32-1.28,5.87,5.87,0,0,1,2.38-.4h5.4a9.54,9.54,0,0,1,1.84.15,3.16,3.16,0,0,1,1.25.53,2.18,2.18,0,0,1,.77,1,4.68,4.68,0,0,1,.26,1.72Z"/><rect class="cls-1" x="157.01" y="19.82" width="24.52" height="4.72"/><rect class="cls-1" x="157.01" y="37.45" width="24.52" height="4.72"/><rect class="cls-1" x="157.01" y="28.6" width="24.52" height="4.8"/><rect class="cls-2" x="176.72" y="20.95" width="2.4" height="2.47"/><rect class="cls-2" x="176.72" y="29.79" width="2.4" height="2.4"/><rect class="cls-2" x="176.72" y="38.64" width="2.4" height="2.4"/><path class="cls-1" d="M35.72,78.32a4.63,4.63,0,0,1-2.2-.57L3,62A4.6,4.6,0,0,1,.5,57.82V21.53A4.6,4.6,0,0,1,3,17.37L33.46,1.05A4.77,4.77,0,0,1,35.65.5a4.83,4.83,0,0,1,2.22.55L69.49,17.42A4.56,4.56,0,0,1,72,21.59V57.76A4.64,4.64,0,0,1,69.43,62L37.81,77.82A4.82,4.82,0,0,1,35.72,78.32Z"/><path class="cls-3" d="M35.65,1a4.43,4.43,0,0,1,2,.49L69.26,17.87a4.06,4.06,0,0,1,2.28,3.72V57.76a4.16,4.16,0,0,1-2.34,3.78L37.59,77.37a4.08,4.08,0,0,1-3.84-.06L3.22,61.54A4.11,4.11,0,0,1,1,57.82V21.53a4.13,4.13,0,0,1,2.22-3.72L33.69,1.49a4.19,4.19,0,0,1,2-.49m0-1a5.08,5.08,0,0,0-2.42.61L2.75,16.93A5.1,5.1,0,0,0,0,21.53V57.82a5.09,5.09,0,0,0,2.76,4.6L33.29,78.2a5.19,5.19,0,0,0,2.43.62,5.3,5.3,0,0,0,2.3-.54L69.65,62.43a5.12,5.12,0,0,0,2.89-4.67V21.59A5,5,0,0,0,69.71,17L38.11.61A5.39,5.39,0,0,0,35.65,0Z"/><polygon class="cls-2" points="51.63 20.51 58.83 17.45 59.01 17.57 59.01 32.63 51.63 32.15 51.63 20.51"/><polygon class="cls-2" points="51.63 59.74 58.83 61.9 59.01 61.36 59.01 44.74 51.63 45.28 51.63 59.74"/><path class="cls-2" d="M30.33,68.74l1.56-2.34.66.6-1.62,2.34Zm1.86-2-.3-.29a.4.4,0,0,1,.6-.06c.18.12.18.42.06.66Zm-.36,0,.6-28.24h.84l-.66,28.24Zm1-28.24h-.42a.42.42,0,1,1,.84,0Zm-.42,0L31.71,9.11h.84l.72,29.34Zm-.3-29.34h-.42a.46.46,0,0,1,.42-.48.43.43,0,0,1,.42.48Zm-.3-.36a5.11,5.11,0,0,1,3.24-1.62l.06,1a4.15,4.15,0,0,0-2.7,1.32Zm3.24-1.62a7.43,7.43,0,0,1,4,.72l-.3.84a7.15,7.15,0,0,0-3.6-.6Zm4,.72,3.54,1.68-.3.9L38.73,8.69Zm3.54,1.68L51.81,14l-.36.9-9.18-4.44Zm9.06,4.86.18-.42a.47.47,0,0,1,.18.6.43.43,0,0,1-.54.3Zm.42,0V32.2h-.84V14.39ZM51.63,32.2h.42a.42.42,0,1,1-.84,0Zm0-.48,7.31.48v1l-7.31-.49Zm7.31,1V32.2a.49.49,0,0,1,0,1Zm-.41,0V17.87h.84V32.68Zm.41-14.81h-.41a.42.42,0,1,1,.84,0Zm.19-.42,8,3.9-.3.9-8.09-4ZM67,21.83l.18-.48a.67.67,0,0,1,.24.66c-.12.24-.36.36-.54.24Zm.42,0V57.7h-.84V21.83ZM67,57.7h.42a.42.42,0,1,1-.84,0Zm.3.36h0l-.6-.72h0ZM67,57.7l.3.36a.4.4,0,0,1-.6,0,.76.76,0,0,1,0-.72Zm.18.42-8.09,3.66-.3-.84,8.09-3.66Zm-8.22,3.24.13.42a.33.33,0,0,1-.48-.24.45.45,0,0,1,.18-.6Zm-.41,0V44.68h.84V61.36Zm.41-16.68h-.41a.42.42,0,1,1,.84,0Zm0,.48-7.31.54v-1l7.31-.54Zm-7.31.06v.48a.48.48,0,0,1,0-1Zm.42,0V64.66h-.84V45.22Zm-.42,19.44h.42a.42.42,0,1,1-.84,0Zm.18.42L39,71l-.3-.84,12.72-5.93ZM38.91,70.6,39,71c-.18.12-.42,0-.54-.24a.54.54,0,0,1,.24-.6ZM39,71a7.47,7.47,0,0,1-4.62.49l.12-1a6.82,6.82,0,0,0,4.2-.36Zm-4.62.49a7.23,7.23,0,0,1-4.08-2.1l.6-.73a6.19,6.19,0,0,0,3.6,1.86ZM30.63,69l-.3.36a.56.56,0,0,1,0-.73.42.42,0,0,1,.6,0Z"/><path class="cls-2" d="M6.1,57,27.87,68.67c6.54,3.48,13.32,4.68,13.32-5V48.64a11.07,11.07,0,0,0-1.74-6.12,8.68,8.68,0,0,0-3.36-3.12,9.16,9.16,0,0,0,3.36-3.12,10.55,10.55,0,0,0,1.68-6.11V15.71c0-9.6-6.06-9.42-11.76-6.48L6.1,21.35Z"/><path class="cls-2" d="M6.28,56.62,28.05,68.2l-.3.9L5.92,57.46ZM28.05,68.2c2.76,1.5,5.52,2.52,7.8,2.52v1c-2.4,0-5.28-1.07-8.1-2.57Zm7.8,2.52a4.27,4.27,0,0,0,2.34-.55l.36.91a5.75,5.75,0,0,1-2.7.59Zm2.34-.55a4.09,4.09,0,0,0,1.68-1.67l.72.48a5.36,5.36,0,0,1-2,2.1Zm1.68-1.67a10.35,10.35,0,0,0,.9-4.8h.84a11.28,11.28,0,0,1-1,5.28Zm.9-4.8V48.64h.84V63.7Zm0-15.06a10.6,10.6,0,0,0-.42-3.12l.78-.3a12.73,12.73,0,0,1,.48,3.42Zm-.42-3.12a11.49,11.49,0,0,0-1.26-2.76l.66-.54a10.52,10.52,0,0,1,1.38,3Zm-1.26-2.76A8.24,8.24,0,0,0,37.65,41l.48-.72a10.16,10.16,0,0,1,1.62,1.92ZM37.65,41a8.59,8.59,0,0,0-1.74-1.2l.3-.9a6.27,6.27,0,0,1,1.92,1.38ZM36.09,39.4l-.18.42a.67.67,0,0,1-.24-.66.44.44,0,0,1,.54-.24Zm-.18-.48a6.47,6.47,0,0,0,1.74-1.2l.48.78a7,7,0,0,1-1.92,1.32Zm2-.78-.24-.42a.42.42,0,0,1,.6.12.56.56,0,0,1-.12.66Zm-.24-.42A6.91,6.91,0,0,0,39.09,36l.66.6a10.41,10.41,0,0,1-1.62,1.91ZM39.09,36a11.08,11.08,0,0,0,1.26-2.7l.78.3a11.47,11.47,0,0,1-1.38,3Zm1.26-2.7a13.12,13.12,0,0,0,.42-3.12h.78a12.72,12.72,0,0,1-.42,3.42Zm.42-3.12-.06-14.46h.84V30.17Zm-.06-14.46a12.19,12.19,0,0,0-1-5.28l.66-.48a12.37,12.37,0,0,1,1.14,5.76Zm-1-5.28A4.67,4.67,0,0,0,38,8.51l.36-.84A5.21,5.21,0,0,1,40.41,10ZM38,8.51a5.21,5.21,0,0,0-2.52-.6V7a6,6,0,0,1,2.88.66Zm-2.52-.6a13.65,13.65,0,0,0-5.88,1.74l-.36-.84A14.38,14.38,0,0,1,35.43,7ZM29.55,9.65,6.28,21.83l-.36-.9L29.19,8.81ZM6.1,21.35l.18.48c-.24.06-.48,0-.54-.24a.55.55,0,0,1,.18-.66Zm.42,0V57H5.68V21.35ZM6.1,57h.42a.46.46,0,0,1-.42.48A.46.46,0,0,1,5.68,57Z"/><path class="cls-1" d="M30.57,24.23c0-.84-.48-1.14-1.38-.9l-18.35,5v7l18.53-2.09a1.33,1.33,0,0,0,1.2-1.5V24.23Z"/><polygon class="cls-2" points="11.74 29.81 29.31 25.61 29.31 30.77 11.74 33.47 11.74 29.81"/><polygon class="cls-1" points="25.65 27.83 27.69 27.47 27.69 29.51 25.65 29.86 25.65 27.83"/><polygon class="cls-1" points="13.96 30.59 22.59 28.73 22.59 30.23 21.28 30.46 13.96 31.91 13.96 30.59"/><path class="cls-1" d="M30.57,54.64c0,.9-.48,1.2-1.38,1L10.84,51.1v-7l18.53,1.56c.78.06,1.2.54,1.2,1.44v7.56Z"/><polygon class="cls-2" points="11.74 49.66 29.31 53.26 29.31 48.16 11.74 46 11.74 49.66"/><polygon class="cls-1" points="25.65 51.16 27.69 51.52 27.69 49.42 25.65 49.18 25.65 51.16"/><polygon class="cls-1" points="13.96 48.82 22.59 50.38 22.59 48.88 21.28 48.64 13.96 47.5 13.96 48.82"/></g></g></svg>