<svg width="1547" height="290" xmlns="http://www.w3.org/2000/svg"><defs><linearGradient y2="1.00031" x2="0" y1="0" x1="0" id="a"><stop stop-color="#3023ae" offset="0"/><stop stop-color="#c86dd7" offset="100%"/></linearGradient></defs><g><title>Layer 1</title><g id="svg_2" paint-order="stroke" transform="matrix(2.20961 0 0 -2.07421 343.128 203.8)"><path id="svg_3" fill="url(#a)" d="m-56.44913 52.44296v-39.266l-2.662-1.559-17.005-9.966v20.609l-.578-.339-19.088-11.189-19.089 11.189-.578.339v-20.609l-17.005 9.966-2.662 1.559v42.989l3.177-1.862 16.49-9.667.22-.129 19.447-11.396 19.446 11.396.22.129 16.49 9.667 3.177 1.862v-3.723zm-39.333 23.054 16.713-9.796-16.713-9.796-16.714 9.796 16.714 9.796zm55.602-9.796-16.269 9.535-3.177 1.861-16.49 9.668-.22.129-19.446 11.396-19.447-11.396-.22-.129-16.49-9.668-3.177-1.861-16.269-9.535-3.397-1.99v-61.801l2.882-1.689 16.784-9.837 19.667-11.528.22-.129 19.447-11.397 19.446 11.397.22.129 19.667 11.528 16.784 9.837 2.883 1.689v61.801l-3.398 1.99z"/></g><path stroke="#8b53ff" id="svg_4" fill="#fff" stroke-width="47.26272" d="m319.08843 166.7225h-16.483v-68.314h18.254l23.828 50.118 23.69-50.118h18.394v68.314h-16.582v-34.876l-16.384 34.876h-18.392l-16.325-34.876v34.876zm99.31.0h-16.482v-68.314h16.482v68.314zm30.8.0h-16.581v-68.314h16.58l34.562 41.69v-41.69h16.58v68.314h-16.58l-34.561-41.788v41.788zm117.782.0h-52.323v-68.314h52.323v15.301h-35.84v11.717h29.913v14.278h-29.914v11.776h35.84v15.242h.001zm7.503-34.679v0q0-7.05 2.797-13.43 2.796-6.38 7.66-11.087 4.845-4.707 11.757-7.503 6.932-2.797 14.77-2.797v0q10.693.0 19.042 4.589 8.37 4.588 13.076 12.485v0l-13.982 8.133q-2.5-4.805-7.148-7.562-4.667-2.777-10.989-2.777v0q-8.881.0-14.592 5.711-5.71 5.711-5.71 14.238v0q0 5.396 2.56 10.063 2.54 4.648 7.226 7.503 4.687 2.836 10.516 2.836v0q6.085.0 10.713-2.796 4.628-2.797 7.228-7.543v0l13.981 8.035q-4.805 8.054-13.135 12.918-8.35 4.884-18.787 4.884v0q-7.896.0-14.789-2.796-6.892-2.797-11.737-7.562-4.864-4.786-7.66-11.402-2.797-6.637-2.797-14.14zm96.416 34.68h-16.483v-68.315h33.005q10.457.0 17.39 7.286 6.95 7.287 6.95 18.354v0q0 7.326-3.288 13.194-3.289 5.888-8.881 8.882v0l14.08 20.598h-20.5l-10.26-16.975h-12.013v16.975.001zm0-53.014v20.796h14.12q4.214.0 7.188-3.072 2.973-3.053 2.973-7.385v0q0-4.214-2.954-7.267-2.934-3.072-7.109-3.072v0h-14.218zm67.92 53.013h-17.447l29.224-68.314h18.334l29.322 68.314h-17.546l-4.411-10.634h-32.966l-4.51 10.634zm21.092-49.626-10.831 25.503h21.465l-10.634-25.503zm66.01 49.626h-16.483v-68.314h52.324v15.301h-35.841v15.636h29.913v15.164h-29.913v22.213zm68.846-53.013h-24.183v-15.301h65.085v15.301h-24.222v53.013h-16.68v-53.013zm68.61 53.013h-16.483v-68.314h16.482v68.314h.001zm30.799.0h-16.581v-68.314h16.58l34.562 41.69v-41.69h16.581v68.314h-16.581l-34.561-41.788v41.788zm95.667.0h-30.208v-68.216l30.208-.098h.296q8.094-.04 14.809 2.501v0q6.813 2.56 11.382 7.109 4.569 4.569 7.07 10.85 2.5 6.263 2.5 13.628v0q0 9.847-4.548 17.645-4.53 7.798-12.78 12.19-8.232 4.391-18.729 4.391v0zm-13.725-53.013v37.771h13.725q8.626.0 14.002-5.238 5.376-5.219 5.376-13.746v0q0-9.02-5.218-13.903-5.239-4.884-14.16-4.884v0h-13.725zm113.666 53.013h-52.323v-68.314h52.323v15.301h-35.84v11.717h29.913v14.278h-29.914v11.776h35.841v15.242zm33.4-33.438-24.085-24.32 11.737-11.738 24.124 24.282 24.812-24.282 11.718 11.639-25.01 24.616 22.804 22.706-11.914 11.855-22.509-22.903-22.804 22.706-11.776-11.954 22.902-22.607h.001zm52.717 25.01v0q0-4.136 2.855-7.09 2.836-2.973 6.755-2.973v0q4.175.0 7.109 2.954 2.954 2.934 2.954 7.109v0q0 3.919-2.974 6.794-2.973 2.855-7.09 2.855v0q-3.859.0-6.734-2.855-2.875-2.875-2.875-6.794zm46.691 8.428h-16.58v-68.314h16.58l34.561 41.69v-41.69h16.582v68.314h-16.582l-34.56-41.788v41.788h-.001zm117.783.0h-52.324v-68.314h52.324v15.301h-35.841v11.717h29.913v14.278h-29.913v11.776h35.84v15.242h.001zm33.497-53.013h-24.163v-15.301h65.065v15.301h-24.222v53.013h-16.68v-53.013z" paint-order="stroke"/></g></svg>
